<svg width="199" height="56" viewBox="0 0 199 56" fill="none" xmlns="http://www.w3.org/2000/svg">
<path d="M20.4453 26.6861L17.3369 28.3728L16.337 26.1801C15.3008 27.4572 13.7708 28.3728 11.7828 28.3728C7.99979 28.3728 6.02393 25.2404 6.02393 20.3971C6.02393 15.1321 8.36123 12.3009 12.084 12.3009C13.831 12.3009 15.1924 12.9515 16.0719 14.1683V6.40942H19.2646V24.3247L20.4453 26.6861ZM16.0719 24.5536V16.3008C15.2406 15.6261 14.2045 15.2044 13.1202 15.2044C10.7588 15.2044 9.3612 17.0116 9.3612 20.4091C9.3612 23.6621 10.6624 25.4693 13.0599 25.4693C14.1201 25.4693 15.2165 25.1199 16.0719 24.5536Z" fill="white"/>
<path d="M36.2885 20.6862H25.8189C26.0357 23.3729 28.1321 25.1801 31.4453 25.1801C33.132 25.1801 34.9633 24.8307 36.2042 24.1801L35.2042 27.4572C34.1681 28.0234 32.4211 28.3728 30.4212 28.3728C25.6622 28.3728 22.5298 25.156 22.5298 20.2405C22.5298 15.3008 25.5177 12.2888 30.2766 12.2888C34.2042 12.2888 36.6861 14.5297 36.6861 18.1682C36.6741 18.9995 36.5295 19.9754 36.2885 20.6862ZM26.0116 18.4694H33.5536C33.4091 16.1683 32.3127 15.0719 30.2766 15.0719C28.0477 15.0719 26.5056 16.3369 26.0116 18.4694Z" fill="white"/>
<path d="M44.0712 27.9874L38.0352 12.6744H41.5532L45.4808 23.373L45.9266 24.6983H46.047L46.4928 23.373L50.3963 12.6744H53.8541L47.8542 27.9874H44.0712Z" fill="white"/>
<path d="M64.3122 12.7105H71.2278L70.782 15.1683H63.8665L61.4448 28.9391C60.7701 32.7824 58.1919 34.2282 54.5896 34.2282C52.939 34.2282 52.1679 33.9872 51.3366 33.8185L51.2764 31.3366C52.1077 31.4812 53.0836 31.5776 54.445 31.5776C56.6016 31.5776 58.0232 30.7222 58.3485 28.915L60.7701 15.1683H55.951L56.3967 12.7105H61.2159L61.4569 11.2889C62.1316 7.46968 64.6737 6.02393 68.2519 6.02393C69.9386 6.02393 70.794 6.26488 71.529 6.43356L71.5892 8.97567C70.7579 8.77086 69.782 8.67447 68.4206 8.67447C66.2881 8.67447 64.8785 9.52988 64.5532 11.3371L64.3122 12.7105Z" fill="white"/>
<path d="M85.5164 20.6862H75.0467C75.2516 23.3729 77.3479 25.1801 80.6611 25.1801C82.3478 25.1801 84.1791 24.8307 85.42 24.1801L84.42 27.4572C83.3839 28.0234 81.637 28.3728 79.637 28.3728C74.8781 28.3728 71.7456 25.156 71.7456 20.2405C71.7456 15.3008 74.7335 12.2888 79.4924 12.2888C83.4201 12.2888 85.9019 14.5297 85.9019 18.1682C85.8899 18.9995 85.7453 19.9754 85.5164 20.6862ZM75.2275 18.4694H82.7695C82.6249 16.1683 81.5285 15.0719 79.4924 15.0719C77.2636 15.0719 75.7214 16.3369 75.2275 18.4694Z" fill="white"/>
<path d="M88.9377 27.0717L88.7329 23.638C90.0943 24.5898 92.5762 25.4091 95.1786 25.4091C97.1544 25.4091 98.5761 24.7826 98.5761 23.3971C98.5761 20.5056 89.0582 23.1923 89.0582 17.2767C89.0582 14.5298 91.1305 12.1925 96.0701 12.1925C99.0821 12.1925 101.395 12.9274 101.395 14.7587C101.395 15.325 101.154 15.7948 100.925 16.2406C99.6242 15.6141 97.5881 15.1804 95.8653 15.1804C93.5039 15.1804 92.263 16.0719 92.263 17.0478C92.263 19.614 101.901 17.3731 101.901 23.132C101.901 26.3488 99.058 28.3608 94.8412 28.3608C91.9497 28.3729 89.7931 27.4572 88.9377 27.0717Z" fill="white"/>
<path d="M118.347 24.7345L117.696 27.7224C116.925 28.0477 115.395 28.373 113.973 28.373C110.154 28.373 108.54 26.3971 108.54 23.5899V15.3732H104.19V12.6865H108.54V8.48181H111.732V12.6745H117.913V15.3612H111.732V22.602C111.732 24.5779 112.769 25.4694 114.576 25.4694C115.6 25.4694 117.491 25.2405 118.347 24.7345Z" fill="white"/>
<path d="M129.316 27.3064C129.971 26.6515 131.27 25.3417 133.214 23.377C135.157 21.3912 136.51 19.9863 137.27 19.1624C138.347 18.0004 139.076 17.092 139.457 16.4371C139.837 15.7822 140.027 14.99 140.027 14.0604C140.027 13.4267 139.858 12.8351 139.52 12.2859C139.203 11.7155 138.728 11.2613 138.094 10.9232C137.481 10.5641 136.742 10.3845 135.876 10.3845C134.735 10.3845 133.816 10.7225 133.119 11.3986C132.443 12.0535 131.999 12.7718 131.788 13.5534L129.316 12.5711C129.527 11.895 129.908 11.1979 130.457 10.4796C131.006 9.74018 131.746 9.11697 132.675 8.60994C133.605 8.08179 134.703 7.81772 135.971 7.81772C137.302 7.81772 138.474 8.10292 139.488 8.67332C140.523 9.24372 141.326 10.0043 141.897 10.9549C142.467 11.9056 142.752 12.9302 142.752 14.0288C142.752 16.247 141.59 18.5392 139.266 20.9053L132.77 27.4332H143.006V30H129.316V27.3064ZM154.743 30.507C153.032 30.507 151.511 30.0106 150.18 29.0176C148.87 28.0036 147.856 26.641 147.138 24.9298C146.441 23.1974 146.092 21.275 146.092 19.1624C146.092 17.0498 146.441 15.1379 147.138 13.4267C147.856 11.6943 148.87 10.3317 150.18 9.33879C151.49 8.32474 153.011 7.81772 154.743 7.81772C156.475 7.81772 157.996 8.32474 159.306 9.33879C160.616 10.3317 161.62 11.6943 162.317 13.4267C163.035 15.1379 163.394 17.0498 163.394 19.1624C163.394 21.275 163.035 23.1974 162.317 24.9298C161.62 26.641 160.606 28.0036 159.275 29.0176C157.965 30.0106 156.454 30.507 154.743 30.507ZM154.743 27.9402C155.947 27.9402 156.993 27.5599 157.88 26.7994C158.768 26.0178 159.454 24.9615 159.94 23.6305C160.426 22.2996 160.669 20.8102 160.669 19.1624C160.669 17.5145 160.426 16.0252 159.94 14.6942C159.454 13.3633 158.768 12.3176 157.88 11.557C156.993 10.7754 155.947 10.3845 154.743 10.3845C153.539 10.3845 152.493 10.7754 151.606 11.557C150.719 12.3176 150.032 13.3633 149.546 14.6942C149.06 16.0252 148.817 17.5145 148.817 19.1624C148.817 20.8102 149.06 22.2996 149.546 23.6305C150.032 24.9615 150.719 26.0178 151.606 26.7994C152.493 27.5599 153.539 27.9402 154.743 27.9402ZM166.08 27.3064C166.735 26.6515 168.034 25.3417 169.978 23.377C171.922 21.3912 173.274 19.9863 174.034 19.1624C175.112 18.0004 175.841 17.092 176.221 16.4371C176.601 15.7822 176.791 14.99 176.791 14.0604C176.791 13.4267 176.622 12.8351 176.284 12.2859C175.967 11.7155 175.492 11.2613 174.858 10.9232C174.245 10.5641 173.506 10.3845 172.64 10.3845C171.499 10.3845 170.58 10.7225 169.883 11.3986C169.207 12.0535 168.763 12.7718 168.552 13.5534L166.08 12.5711C166.292 11.895 166.672 11.1979 167.221 10.4796C167.77 9.74018 168.51 9.11697 169.439 8.60994C170.369 8.08179 171.467 7.81772 172.735 7.81772C174.066 7.81772 175.238 8.10292 176.252 8.67332C177.288 9.24372 178.09 10.0043 178.661 10.9549C179.231 11.9056 179.516 12.9302 179.516 14.0288C179.516 16.247 178.354 18.5392 176.031 20.9053L169.534 27.4332H179.77V30H166.08V27.3064ZM189.574 30.507C188.666 30.507 187.736 30.3169 186.786 29.9366C185.835 29.5564 184.969 28.9648 184.187 28.162C183.427 27.3381 182.877 26.3135 182.539 25.0882L184.979 24.0742C185.317 25.2995 185.888 26.2501 186.691 26.9262C187.514 27.6022 188.476 27.9402 189.574 27.9402C190.377 27.9402 191.127 27.7712 191.824 27.4332C192.521 27.0741 193.071 26.5882 193.472 25.9755C193.894 25.3417 194.106 24.6446 194.106 23.884C194.106 23.1446 193.894 22.4686 193.472 21.8559C193.071 21.2433 192.511 20.7679 191.792 20.4299C191.095 20.0708 190.324 19.8912 189.479 19.8912H187.609V17.3878H189.289C190.451 17.3878 191.423 17.0603 192.204 16.4054C192.986 15.7294 193.377 14.8421 193.377 13.7436C193.377 12.7295 192.997 11.9162 192.236 11.3035C191.476 10.6909 190.535 10.3845 189.416 10.3845C188.317 10.3845 187.451 10.6697 186.817 11.2401C186.205 11.8105 185.761 12.5077 185.486 13.3316L183.015 12.2859C183.395 11.1451 184.124 10.1204 185.201 9.21203C186.3 8.28249 187.705 7.81772 189.416 7.81772C190.683 7.81772 191.824 8.07123 192.838 8.57825C193.852 9.08528 194.644 9.793 195.215 10.7014C195.806 11.6098 196.102 12.6239 196.102 13.7436C196.102 14.8632 195.817 15.8139 195.247 16.5956C194.676 17.3772 193.968 17.9899 193.123 18.4335V18.5603C194.201 19.0039 195.088 19.6905 195.785 20.6201C196.482 21.5285 196.831 22.6059 196.831 23.8523C196.831 25.1199 196.504 26.2607 195.849 27.2747C195.215 28.2888 194.338 29.081 193.218 29.6514C192.12 30.2218 190.905 30.507 189.574 30.507Z" fill="white"/>
<rect x="153.625" y="18.4764" width="2.63949" height="3.51931" fill="white"/>
<path d="M128.807 43.0454H131.753C132.165 43.0454 132.551 43.1409 132.91 43.332C133.277 43.523 133.568 43.7866 133.782 44.1229C133.996 44.4591 134.103 44.8373 134.103 45.2576C134.103 45.6549 133.999 46.0026 133.793 46.3006C133.594 46.5986 133.323 46.8279 132.979 46.9883V47.0342C133.392 47.1717 133.728 47.4086 133.988 47.7448C134.248 48.0811 134.378 48.4746 134.378 48.9254C134.378 49.3686 134.263 49.7698 134.034 50.1289C133.812 50.4804 133.51 50.7555 133.128 50.9542C132.754 51.1529 132.349 51.2522 131.913 51.2522H128.807V43.0454ZM131.753 46.5986C132.028 46.5986 132.269 46.5337 132.475 46.4038C132.689 46.2739 132.853 46.1096 132.968 45.9109C133.082 45.7046 133.14 45.4945 133.14 45.2805C133.14 45.0742 133.082 44.8717 132.968 44.673C132.861 44.4667 132.704 44.2986 132.498 44.1687C132.299 44.0388 132.066 43.9738 131.799 43.9738H129.77V46.5986H131.753ZM131.971 50.3238C132.246 50.3238 132.49 50.255 132.704 50.1175C132.926 49.9799 133.094 49.8042 133.208 49.5902C133.331 49.3686 133.392 49.1432 133.392 48.914C133.392 48.6847 133.331 48.4631 133.208 48.2492C133.086 48.0276 132.914 47.8518 132.693 47.7219C132.471 47.5844 132.215 47.5156 131.925 47.5156H129.77V50.3238H131.971ZM135.563 43.0454H136.538V45.4639L136.492 46.2662H136.538C136.698 45.9682 136.95 45.7199 137.294 45.5212C137.646 45.3225 138.028 45.2232 138.44 45.2232C139.151 45.2232 139.693 45.4333 140.068 45.8536C140.442 46.2662 140.629 46.8164 140.629 47.5041V51.2522H139.655V47.6531C139.655 47.1259 139.521 46.7362 139.254 46.484C138.987 46.2319 138.639 46.1058 138.211 46.1058C137.905 46.1058 137.623 46.1975 137.363 46.3809C137.111 46.5643 136.908 46.8011 136.755 47.0915C136.61 47.3819 136.538 47.6837 136.538 47.997V51.2522H135.563V43.0454ZM144.154 51.4356C143.451 51.4356 142.912 51.2293 142.537 50.8166C142.171 50.404 141.987 49.8271 141.987 49.0859V45.4066H142.961V48.9369C142.961 49.4947 143.088 49.9035 143.34 50.1633C143.592 50.4231 143.932 50.553 144.36 50.553C144.688 50.553 144.979 50.4651 145.231 50.2894C145.491 50.1136 145.689 49.8844 145.827 49.6017C145.972 49.3189 146.045 49.0209 146.045 48.7076V45.4066H147.019V51.2522H146.091V50.404H146.045C145.884 50.6944 145.628 50.9389 145.277 51.1376C144.925 51.3363 144.551 51.4356 144.154 51.4356ZM151.427 51.4356C150.983 51.4356 150.582 51.3363 150.223 51.1376C149.872 50.9313 149.608 50.6829 149.432 50.3925H149.386V51.2522H148.458V43.0454H149.432V45.4639L149.386 46.2777H149.432C149.608 45.9797 149.872 45.7313 150.223 45.5327C150.582 45.3264 150.983 45.2232 151.427 45.2232C151.946 45.2232 152.42 45.3569 152.848 45.6244C153.276 45.8918 153.612 46.2624 153.857 46.7362C154.101 47.2099 154.223 47.741 154.223 48.3294C154.223 48.9254 154.101 49.4603 153.857 49.9341C153.612 50.4002 153.276 50.767 152.848 51.0344C152.42 51.3019 151.946 51.4356 151.427 51.4356ZM151.312 50.553C151.648 50.553 151.965 50.4613 152.263 50.2779C152.561 50.0945 152.798 49.8347 152.974 49.4985C153.157 49.1547 153.249 48.7649 153.249 48.3294C153.249 47.8938 153.157 47.508 152.974 47.1717C152.798 46.8279 152.561 46.5643 152.263 46.3809C151.965 46.1975 151.648 46.1058 151.312 46.1058C150.976 46.1058 150.659 46.1975 150.361 46.3809C150.063 46.5643 149.826 46.8241 149.65 47.1603C149.474 47.4965 149.386 47.8862 149.386 48.3294C149.386 48.7726 149.474 49.1623 149.65 49.4985C149.826 49.8347 150.063 50.0945 150.361 50.2779C150.659 50.4613 150.976 50.553 151.312 50.553ZM157.221 51.4356C156.793 51.4356 156.411 51.3515 156.075 51.1834C155.739 51.0153 155.479 50.7861 155.296 50.4957C155.112 50.1977 155.021 49.8615 155.021 49.4871C155.021 48.8681 155.254 48.3867 155.72 48.0428C156.186 47.6913 156.774 47.5156 157.485 47.5156C157.837 47.5156 158.161 47.5538 158.459 47.6302C158.765 47.7066 158.998 47.7945 159.158 47.8938V47.5385C159.158 47.103 159.006 46.7553 158.7 46.4955C158.394 46.228 158.008 46.0943 157.542 46.0943C157.214 46.0943 156.912 46.1669 156.637 46.3121C156.362 46.4496 156.144 46.6445 155.984 46.8966L155.25 46.3465C155.479 45.995 155.792 45.7199 156.19 45.5212C156.595 45.3225 157.042 45.2232 157.531 45.2232C158.326 45.2232 158.948 45.4333 159.399 45.8536C159.858 46.2662 160.087 46.8317 160.087 47.55V51.2522H159.158V50.4155H159.113C158.945 50.6982 158.692 50.9389 158.356 51.1376C158.02 51.3363 157.642 51.4356 157.221 51.4356ZM157.313 50.5759C157.642 50.5759 157.947 50.4919 158.23 50.3238C158.513 50.1557 158.738 49.9303 158.906 49.6475C159.074 49.3648 159.158 49.0553 159.158 48.7191C158.975 48.5968 158.75 48.4975 158.482 48.4211C158.215 48.3447 157.932 48.3065 157.634 48.3065C157.099 48.3065 156.694 48.4173 156.419 48.6389C156.152 48.8605 156.018 49.147 156.018 49.4985C156.018 49.8195 156.14 50.0793 156.385 50.2779C156.629 50.4766 156.939 50.5759 157.313 50.5759ZM161.442 45.4066H162.371V46.2662H162.417C162.577 45.9759 162.833 45.7313 163.184 45.5327C163.536 45.3264 163.91 45.2232 164.308 45.2232C165.011 45.2232 165.546 45.4295 165.912 45.8421C166.287 46.2471 166.474 46.8011 166.474 47.5041V51.2522H165.5V47.6531C165.5 47.1106 165.37 46.7171 165.11 46.4726C164.85 46.228 164.495 46.1058 164.044 46.1058C163.731 46.1058 163.448 46.1936 163.196 46.3694C162.951 46.5451 162.76 46.7782 162.623 47.0686C162.485 47.3513 162.417 47.6493 162.417 47.9626V51.2522H161.442V45.4066ZM170.469 51.4356C169.911 51.4356 169.411 51.3019 168.968 51.0344C168.524 50.767 168.177 50.4002 167.925 49.9341C167.68 49.4603 167.558 48.9292 167.558 48.3409C167.558 47.7754 167.672 47.2558 167.902 46.782C168.139 46.3083 168.471 45.93 168.899 45.6473C169.327 45.3646 169.823 45.2232 170.389 45.2232C170.962 45.2232 171.459 45.3531 171.879 45.6129C172.299 45.8651 172.62 46.2166 172.842 46.6674C173.071 47.1182 173.186 47.634 173.186 48.2148C173.186 48.3294 173.174 48.4287 173.151 48.5128H168.532C168.555 48.956 168.662 49.3304 168.853 49.6361C169.044 49.9417 169.285 50.171 169.575 50.3238C169.873 50.4766 170.183 50.553 170.503 50.553C171.252 50.553 171.829 50.2015 172.234 49.4985L173.06 49.8997C172.807 50.3734 172.463 50.7479 172.028 51.023C171.6 51.298 171.08 51.4356 170.469 51.4356ZM172.154 47.7104C172.139 47.4659 172.07 47.2214 171.948 46.9769C171.825 46.7324 171.631 46.526 171.363 46.3579C171.103 46.1898 170.775 46.1058 170.377 46.1058C169.919 46.1058 169.529 46.2548 169.208 46.5528C168.895 46.8432 168.689 47.229 168.589 47.7104H172.154ZM176.422 51.4356C175.795 51.4356 175.272 51.2904 174.852 51C174.431 50.702 174.133 50.3238 173.958 49.8653L174.829 49.4756C174.974 49.8271 175.188 50.0984 175.471 50.2894C175.761 50.4804 176.078 50.5759 176.422 50.5759C176.789 50.5759 177.102 50.5033 177.362 50.3582C177.622 50.2053 177.752 49.9914 177.752 49.7163C177.752 49.4718 177.648 49.2769 177.442 49.1317C177.236 48.9789 176.911 48.849 176.468 48.742L175.757 48.5586C175.291 48.444 174.909 48.2492 174.611 47.9741C174.313 47.699 174.164 47.3437 174.164 46.9081C174.164 46.5719 174.263 46.2777 174.462 46.0255C174.668 45.7657 174.94 45.5671 175.276 45.4295C175.612 45.292 175.975 45.2232 176.365 45.2232C176.877 45.2232 177.331 45.334 177.729 45.5556C178.134 45.7772 178.42 46.0867 178.588 46.484L177.74 46.8737C177.48 46.3541 177.018 46.0943 176.353 46.0943C176.032 46.0943 175.75 46.1707 175.505 46.3236C175.268 46.4687 175.15 46.6559 175.15 46.8852C175.15 47.0991 175.234 47.2749 175.402 47.4124C175.57 47.5423 175.822 47.6493 176.158 47.7334L177.007 47.9512C177.58 48.0963 178.011 48.3141 178.302 48.6045C178.592 48.8872 178.737 49.2349 178.737 49.6475C178.737 50.0067 178.634 50.3238 178.428 50.5989C178.222 50.8663 177.943 51.0726 177.591 51.2178C177.24 51.363 176.85 51.4356 176.422 51.4356ZM179.157 45.4066H180.155L181.553 50.0258H181.564L183.032 45.4066H184.04L185.519 50.0143H185.53L186.917 45.4066H187.903L186.012 51.2522H185.026L183.513 46.5872L182.011 51.2522H181.037L179.157 45.4066ZM190.466 51.4356C190.038 51.4356 189.656 51.3515 189.319 51.1834C188.983 51.0153 188.723 50.7861 188.54 50.4957C188.357 50.1977 188.265 49.8615 188.265 49.4871C188.265 48.8681 188.498 48.3867 188.964 48.0428C189.43 47.6913 190.019 47.5156 190.729 47.5156C191.081 47.5156 191.405 47.5538 191.703 47.6302C192.009 47.7066 192.242 47.7945 192.403 47.8938V47.5385C192.403 47.103 192.25 46.7553 191.944 46.4955C191.639 46.228 191.253 46.0943 190.787 46.0943C190.458 46.0943 190.156 46.1669 189.881 46.3121C189.606 46.4496 189.388 46.6445 189.228 46.8966L188.494 46.3465C188.723 45.995 189.037 45.7199 189.434 45.5212C189.839 45.3225 190.286 45.2232 190.775 45.2232C191.57 45.2232 192.193 45.4333 192.643 45.8536C193.102 46.2662 193.331 46.8317 193.331 47.55V51.2522H192.403V50.4155H192.357C192.189 50.6982 191.937 50.9389 191.6 51.1376C191.264 51.3363 190.886 51.4356 190.466 51.4356ZM190.557 50.5759C190.886 50.5759 191.192 50.4919 191.474 50.3238C191.757 50.1557 191.982 49.9303 192.15 49.6475C192.319 49.3648 192.403 49.0553 192.403 48.7191C192.219 48.5968 191.994 48.4975 191.726 48.4211C191.459 48.3447 191.176 48.3065 190.878 48.3065C190.343 48.3065 189.938 48.4173 189.663 48.6389C189.396 48.8605 189.262 49.147 189.262 49.4985C189.262 49.8195 189.384 50.0793 189.629 50.2779C189.873 50.4766 190.183 50.5759 190.557 50.5759ZM194.686 45.4066H195.615V46.3465H195.661C195.775 46.0255 195.997 45.7619 196.326 45.5556C196.654 45.3416 196.998 45.2347 197.357 45.2347C197.625 45.2347 197.854 45.2729 198.045 45.3493V46.4038C197.8 46.2815 197.525 46.2204 197.22 46.2204C196.937 46.2204 196.677 46.3006 196.44 46.4611C196.203 46.6216 196.012 46.8393 195.867 47.1144C195.729 47.3819 195.661 47.6722 195.661 47.9855V51.2522H194.686V45.4066Z" fill="#428EFF"/>
</svg>
