<svg width="145" height="145" viewBox="0 0 145 145" fill="none" xmlns="http://www.w3.org/2000/svg">
<path d="M47.8101 74.04C42.4401 73.01 43.44 78.3 39.88 80.57C39.8016 80.6205 39.7392 80.6923 39.7002 80.777C39.6612 80.8618 39.6472 80.9558 39.6598 81.0483C39.6724 81.1407 39.7111 81.2276 39.7714 81.2987C39.8316 81.3699 39.911 81.4224 40.0001 81.45C42.1201 82.1 42.5301 79.8 43.5401 78.61C43.7934 78.3034 43.9334 78.3467 43.9601 78.74L44.0701 80.34" stroke="black" stroke-opacity="0.745" stroke-width="2"/>
<path d="M69.1578 77.5579C69.3452 77.6247 69.5567 77.5993 69.7458 77.4875C69.9349 77.3756 70.0862 77.1865 70.1662 76.9616C70.2059 76.8503 70.2269 76.7335 70.228 76.618C70.2291 76.5025 70.2104 76.3905 70.1728 76.2884C70.1352 76.1863 70.0796 76.0961 70.009 76.023C69.9385 75.9498 69.8544 75.8952 69.7616 75.8621C69.5742 75.7954 69.3627 75.8208 69.1736 75.9326C68.9845 76.0444 68.8333 76.2336 68.7532 76.4584C68.7136 76.5698 68.6926 76.6865 68.6915 76.8021C68.6903 76.9176 68.7091 77.0296 68.7467 77.1317C68.7842 77.2338 68.8399 77.324 68.9104 77.3971C68.981 77.4703 69.065 77.5249 69.1578 77.5579Z" stroke="black" stroke-opacity="0.745" stroke-width="2"/>
<path d="M47.8101 74.04C46.1567 75.3067 44.9101 77.4067 44.0701 80.34L43.9601 78.74C43.9334 78.3467 43.7934 78.3034 43.5401 78.61C42.5301 79.8 42.1201 82.1 40.0001 81.45C39.911 81.4224 39.8316 81.3699 39.7714 81.2987C39.7111 81.2276 39.6724 81.1407 39.6598 81.0483C39.6472 80.9558 39.6612 80.8618 39.7002 80.777C39.7392 80.6923 39.8016 80.6205 39.88 80.57C43.44 78.3 42.4401 73.01 47.8101 74.04Z" fill="#010001" fill-opacity="0.49"/>
<path d="M68.7538 76.4584C68.587 76.9267 68.7682 77.4189 69.1584 77.5579C69.5486 77.6968 70.0001 77.4299 70.1668 76.9616C70.3336 76.4934 70.1524 76.0011 69.7622 75.8622C69.372 75.7232 68.9205 75.9902 68.7538 76.4584Z" fill="#010001" fill-opacity="0.49"/>
<path d="M45.0323 59.9623L41.6823 56.8823C41.6247 56.8293 41.5539 56.7926 41.4774 56.776C41.4008 56.7594 41.3212 56.7636 41.2468 56.788C41.1724 56.8125 41.1059 56.8564 41.0541 56.9151C41.0023 56.9739 40.9672 57.0454 40.9523 57.1223L40.5523 59.2923C39.3389 57.8457 38.9056 56.229 39.2523 54.4423C39.3056 54.1357 39.1789 53.9523 38.8723 53.8923C36.7523 53.4857 34.9789 52.449 33.5523 50.7823C33.4964 50.7183 33.4539 50.6438 33.4272 50.5632C33.4005 50.4825 33.39 50.3974 33.3966 50.3127C33.4031 50.228 33.4264 50.1454 33.4651 50.0698C33.5039 49.9942 33.5573 49.9271 33.6223 49.8723C34.1689 49.419 34.2023 48.9523 33.7223 48.4723C33.4489 48.199 33.3356 47.869 33.3823 47.4823C34.5823 37.4223 42.6623 27.6123 53.4523 29.1623C57.1923 29.6957 60.2756 31.6623 62.7023 35.0623C62.8956 35.329 63.1423 35.529 63.4423 35.6623C63.8156 35.829 64.0823 36.0323 64.2423 36.2723C69.3023 43.8223 66.1323 48.9723 62.0323 55.6523C61.9347 55.8057 61.7884 55.9219 61.6168 55.9821C61.4453 56.0422 61.2585 56.0429 61.0865 55.984C60.9144 55.9252 60.7673 55.8101 60.6685 55.6575C60.5698 55.5048 60.5254 55.3233 60.5423 55.1423C60.5823 54.7957 60.4456 54.579 60.1323 54.4923C59.7923 54.399 59.6523 54.5257 59.7123 54.8723L60.1323 57.0923C60.1989 57.439 60.0689 57.6823 59.7423 57.8223C58.6423 58.3023 57.6623 58.6923 56.8223 59.6723C53.9123 63.0723 47.4623 65.6123 45.0323 59.9623ZM63.4589 38.7768C63.5479 38.7379 63.6181 38.6582 63.6654 38.5421C63.7126 38.426 63.7361 38.2759 63.7344 38.1003C63.7326 37.9247 63.7058 37.7271 63.6554 37.5188C63.6049 37.3104 63.5319 37.0954 63.4404 36.886C63.2556 36.4632 63.007 36.0888 62.7492 35.8454C62.4914 35.6019 62.2455 35.5093 62.0657 35.5878C61.9766 35.6267 61.9064 35.7065 61.8592 35.8226C61.8119 35.9387 61.7885 36.0888 61.7902 36.2643C61.7919 36.4399 61.8188 36.6375 61.8692 36.8459C61.9196 37.0542 61.9927 37.2692 62.0842 37.4786C62.2689 37.9015 62.5176 38.2758 62.7754 38.5193C63.0332 38.7628 63.279 38.8554 63.4589 38.7768ZM51.8523 42.9923C51.7189 42.0057 51.1556 41.5723 50.1623 41.6923C49.4423 41.7723 48.9823 42.3523 48.3923 42.7523C48.0123 43.0123 47.8223 42.9123 47.8223 42.4523V41.4823C47.8205 41.3331 47.7697 41.1887 47.6778 41.0712C47.5858 40.9537 47.4577 40.8697 47.3133 40.8322C47.1689 40.7947 47.0162 40.8057 46.8787 40.8635C46.7411 40.9214 46.6264 41.0229 46.5523 41.1523C45.0723 43.8323 42.9723 46.9823 44.1423 49.9523C44.2689 50.2657 44.4956 50.4523 44.8223 50.5123C51.8356 51.8323 56.8323 49.479 59.8123 43.4523C60.0526 42.9697 60.1318 42.4227 60.0382 41.8917C59.9446 41.3607 59.6831 40.8737 59.2923 40.5023L55.8823 37.2523C55.7912 37.1664 55.6826 37.1011 55.5641 37.061C55.4456 37.021 55.32 37.0072 55.1962 37.0205C55.0724 37.0338 54.9533 37.074 54.8472 37.1382C54.7412 37.2025 54.6508 37.2892 54.5823 37.3923C53.4623 39.0657 52.8789 40.9157 52.8323 42.9423C52.8389 43.0723 52.7936 43.1996 52.7064 43.2961C52.6192 43.3927 52.4972 43.4507 52.3673 43.4573C52.2373 43.464 52.1101 43.4187 52.0135 43.3315C51.9169 43.2443 51.8589 43.1223 51.8523 42.9923ZM49.1751 59.7928C49.1878 59.6608 49.16 59.5262 49.0932 59.3966C49.0264 59.2671 48.922 59.1452 48.7858 59.0378C48.6497 58.9305 48.4845 58.8398 48.2998 58.771C48.115 58.7023 47.9143 58.6567 47.7091 58.6369C47.5038 58.6172 47.2981 58.6236 47.1036 58.6559C46.9092 58.6881 46.7298 58.7456 46.5756 58.825C46.4215 58.9044 46.2958 59.0041 46.2055 59.1185C46.1152 59.233 46.0622 59.3598 46.0495 59.4918C46.0368 59.6239 46.0646 59.7585 46.1314 59.888C46.1981 60.0176 46.3026 60.1395 46.4387 60.2468C46.5749 60.3542 46.74 60.4448 46.9248 60.5136C47.1095 60.5824 47.3102 60.628 47.5155 60.6477C47.7207 60.6675 47.9264 60.6611 48.1209 60.6288C48.3154 60.5965 48.4948 60.5391 48.6489 60.4597C48.803 60.3803 48.9288 60.2805 49.0191 60.1661C49.1094 60.0517 49.1624 59.9249 49.1751 59.7928Z" fill="#428EFF"/>
<path d="M115.243 92.9023L114.723 91.2423C114.616 90.9023 114.436 90.8557 114.183 91.1023L112.233 93.0523C112.16 93.126 112.067 93.1763 111.965 93.1967C111.864 93.2172 111.759 93.2069 111.663 93.1671C111.567 93.1274 111.486 93.06 111.429 92.9737C111.372 92.8873 111.342 92.7859 111.343 92.6823C111.349 91.789 111.769 91.1323 112.603 90.7123C112.709 90.6609 112.8 90.5823 112.866 90.4845C112.932 90.3867 112.971 90.2732 112.979 90.1555C112.987 90.0378 112.964 89.92 112.912 89.8141C112.86 89.7082 112.781 89.6179 112.683 89.5523C111.609 88.8123 111.293 87.7157 111.733 86.2623C111.819 85.9823 111.803 85.7123 111.683 85.4523C111.256 84.539 110.543 84.0157 109.543 83.8823C109.433 83.8685 109.328 83.8247 109.241 83.756C109.154 83.6872 109.087 83.5959 109.048 83.4919C109.009 83.388 108.999 83.2754 109.019 83.1662C109.039 83.057 109.089 82.9554 109.163 82.8723L109.643 82.3423C109.823 82.1423 109.853 81.919 109.733 81.6723C108.746 79.6057 107.146 78.239 104.933 77.5723C104.599 77.4723 104.316 77.5557 104.083 77.8223L103.453 78.5523C103.324 78.6986 103.144 78.7891 102.951 78.8041C102.758 78.819 102.569 78.7573 102.423 78.6323C101.743 78.059 101.116 78.1357 100.543 78.8623C100.363 79.0957 100.129 79.1723 99.8427 79.0923C98.7427 78.779 98.3893 78.2157 98.7827 77.4023C98.8118 77.341 98.8273 77.2741 98.8281 77.2064C98.8289 77.1386 98.8149 77.0718 98.7872 77.0106C98.7595 76.9494 98.7187 76.8954 98.6678 76.8525C98.6168 76.8096 98.557 76.7788 98.4927 76.7623C97.9193 76.6023 97.4993 76.7523 97.2327 77.2123C97.026 77.5657 97.0827 77.869 97.4027 78.1223C97.9027 78.509 98.0893 79.1457 97.9627 80.0323C97.9427 80.1657 97.866 80.229 97.7327 80.2223C97.6527 80.2223 97.5627 80.2223 97.4627 80.2223C97.3627 80.229 97.316 80.2823 97.3227 80.3823L97.4227 81.6923C97.4427 81.919 97.346 82.0757 97.1327 82.1623C94.7127 83.149 92.556 84.5523 90.6627 86.3723C90.4093 86.6123 90.2893 86.909 90.3027 87.2623C90.5893 93.1223 88.9693 98.369 85.4427 103.002C85.176 103.356 84.936 103.339 84.7227 102.952L82.0027 98.1123C81.9397 98.002 81.8467 97.9122 81.7349 97.8536C81.6232 97.7951 81.4974 97.7703 81.3727 97.7823C80.8193 97.829 80.4793 97.5857 80.3527 97.0523C80.3402 96.9923 80.3443 96.9297 80.3645 96.8717C80.3847 96.8136 80.4202 96.7625 80.467 96.724C80.5138 96.6855 80.5701 96.6612 80.6294 96.6539C80.6887 96.6465 80.7487 96.6564 80.8027 96.6823L81.5827 97.0423C81.7128 97.1011 81.8579 97.1181 81.9981 97.091C82.1382 97.0638 82.2665 96.9939 82.3652 96.8908C82.464 96.7876 82.5283 96.6564 82.5493 96.5152C82.5704 96.374 82.5471 96.2298 82.4827 96.1023L81.7427 94.6723C81.5293 94.2657 81.2193 94.1657 80.8127 94.3723C79.686 94.9657 79.0393 94.6723 78.8727 93.4923C78.4927 90.8123 78.7627 88.079 79.6827 85.2923C80.0127 84.2723 79.8227 82.8123 81.0327 81.8723C81.2993 81.6723 81.3993 81.409 81.3327 81.0823L81.0227 79.5423C80.916 79.0157 81.1193 78.679 81.6327 78.5323C84.1527 77.799 85.806 76.1523 86.5927 73.5923C86.6793 73.3257 86.6493 73.0723 86.5027 72.8323L86.3327 72.5423C86.166 72.2623 86.226 72.049 86.5127 71.9023L89.1127 70.5123C89.4193 70.3523 89.686 70.139 89.9127 69.8723L91.8527 67.5823C91.9351 67.4827 91.9899 67.3632 92.0117 67.2358C92.0336 67.1084 92.0217 66.9774 91.9771 66.856C91.9326 66.7346 91.8571 66.627 91.7581 66.5439C91.659 66.4608 91.5399 66.4051 91.4127 66.3823L88.2027 65.8323C87.8093 65.7657 87.5293 65.5523 87.3627 65.1923L85.1927 60.5123C85.046 60.2057 84.836 59.9557 84.5627 59.7623C81.2927 57.4423 83.6827 52.0223 85.2227 48.6523C87.6127 43.4323 91.4527 40.5123 97.1027 39.5623C98.976 39.249 100.906 38.9023 102.893 38.5223C103.08 38.4854 103.273 38.4981 103.454 38.5591C103.634 38.6202 103.796 38.7276 103.923 38.8707C104.05 39.0139 104.138 39.1879 104.178 39.3757C104.218 39.5636 104.21 39.7588 104.153 39.9423L103.813 41.0223C103.796 41.0739 103.792 41.1288 103.802 41.1821C103.812 41.2354 103.834 41.2855 103.868 41.328C103.902 41.3705 103.945 41.4041 103.995 41.4258C104.044 41.4475 104.099 41.4566 104.153 41.4523C106.983 41.2723 107.963 43.4523 109.203 45.9823C111.653 50.9723 114.113 55.4123 110.313 60.6923C107.623 64.4223 105.313 68.2323 100.393 69.1323C100.332 69.1439 100.275 69.1679 100.225 69.2029C100.174 69.2379 100.132 69.283 100.101 69.3351C100.069 69.3872 100.05 69.4452 100.043 69.5051C100.037 69.565 100.043 69.6255 100.063 69.6823C100.096 69.7823 100.126 69.879 100.153 69.9723C100.193 70.079 100.269 70.1257 100.383 70.1123C102.896 69.8323 105.276 70.1823 107.523 71.1623C109.453 72.0123 110.633 73.8123 112.533 75.1023C112.813 75.289 112.996 75.549 113.083 75.8823C114.083 79.7123 116.983 81.1923 118.393 83.9723C121.193 89.5023 118.473 93.7623 120.343 98.9023C120.404 99.0744 120.405 99.2621 120.345 99.4335C120.285 99.605 120.167 99.7494 120.013 99.8423L117.203 101.522C117.132 101.564 117.054 101.59 116.973 101.601C116.891 101.612 116.809 101.606 116.731 101.585C116.652 101.564 116.579 101.527 116.516 101.476C116.453 101.426 116.401 101.363 116.363 101.292L113.663 96.4923C113.624 96.4215 113.603 96.3421 113.603 96.2613C113.603 96.1805 113.624 96.1011 113.663 96.0303C113.702 95.9595 113.758 95.8996 113.826 95.8563C113.894 95.813 113.972 95.7875 114.053 95.7823L115.963 95.6823C116.296 95.669 116.499 95.499 116.573 95.1723C116.679 94.659 116.493 94.3357 116.013 94.2023C115.673 94.109 115.353 94.1523 115.053 94.3323C114.626 94.599 114.096 94.5557 113.463 94.2023C113.316 94.1157 113.283 93.999 113.363 93.8523C113.396 93.779 113.446 93.7123 113.513 93.6523C113.913 93.3057 114.183 93.1657 114.323 93.2323C114.429 93.279 114.546 93.3323 114.673 93.3923C115.233 93.6523 115.423 93.489 115.243 92.9023ZM99.3627 40.7323C99.2891 40.6441 99.1955 40.5748 99.0897 40.5301C98.9839 40.4855 98.869 40.4667 98.7544 40.4755C98.6399 40.4844 98.5292 40.5204 98.4315 40.5808C98.3337 40.6411 98.2519 40.7239 98.1927 40.8223L97.8127 41.4623C97.7227 41.6181 97.6879 41.7996 97.7138 41.9776C97.7397 42.1556 97.8248 42.3196 97.9554 42.4433C98.086 42.5669 98.2545 42.643 98.4336 42.6591C98.6127 42.6753 98.792 42.6306 98.9427 42.5323C99.7627 41.979 99.9027 41.379 99.3627 40.7323ZM99.4527 53.0523C98.2127 53.8123 97.0493 54.5223 95.9627 55.1823C94.6627 55.9823 93.9527 57.3923 94.9627 58.6623C95.0633 58.7896 95.2025 58.8808 95.3593 58.9223C95.5162 58.9638 95.6823 58.9533 95.8327 58.8923C100.103 57.2323 107.603 56.2523 105.093 49.5423L104.183 46.1423C104.096 45.8223 103.913 45.579 103.633 45.4123C102.353 44.6523 101.146 44.629 100.013 45.3423C99.686 45.549 99.5627 45.8423 99.6427 46.2223C99.9827 47.8823 99.3727 49.1323 97.8127 49.9723C97.6822 50.0412 97.5791 50.1514 97.5207 50.2844C97.4624 50.4175 97.4525 50.5651 97.4927 50.7023C97.746 51.629 98.3993 52.4123 99.4527 53.0523ZM89.4296 57.4339C89.3605 57.3025 89.2103 57.2204 89.0121 57.2059C88.8138 57.1914 88.5837 57.2456 88.3724 57.3565C88.2677 57.4115 88.1708 57.4787 88.0872 57.5544C88.0036 57.6301 87.9349 57.7127 87.8851 57.7976C87.8353 57.8825 87.8053 57.968 87.7968 58.0491C87.7883 58.1303 87.8016 58.2056 87.8358 58.2707C87.9048 58.4022 88.055 58.4843 88.2533 58.4988C88.4515 58.5133 88.6816 58.4591 88.893 58.3481C88.9976 58.2932 89.0945 58.226 89.1781 58.1503C89.2617 58.0746 89.3304 57.992 89.3802 57.9071C89.4301 57.8222 89.4601 57.7367 89.4685 57.6555C89.477 57.5744 89.4638 57.4991 89.4296 57.4339ZM87.0027 59.1623L87.2527 58.9123C87.4927 58.6723 87.446 58.529 87.1127 58.4823C86.766 58.4357 86.426 58.5023 86.0927 58.6823C85.9879 58.7373 85.9033 58.8241 85.8509 58.9302C85.7985 59.0362 85.7811 59.1562 85.8011 59.2728C85.8211 59.3894 85.8775 59.4966 85.9622 59.5792C86.0469 59.6618 86.1556 59.7154 86.2727 59.7323C86.5927 59.7857 86.7727 59.7123 86.8127 59.5123C86.846 59.379 86.9093 59.2623 87.0027 59.1623ZM98.8365 65.9608C98.7978 65.8818 98.733 65.8165 98.6458 65.7687C98.5585 65.7209 98.4506 65.6915 98.3282 65.6822C98.2057 65.6729 98.0712 65.6839 97.9321 65.7145C97.7931 65.7451 97.6523 65.7948 97.5179 65.8606C97.2464 65.9937 97.017 66.1846 96.8803 66.3915C96.7436 66.5984 96.7107 66.8043 96.7889 66.9638C96.8276 67.0429 96.8924 67.1082 96.9796 67.156C97.0668 67.2038 97.1747 67.2332 97.2971 67.2425C97.4196 67.2518 97.5542 67.2408 97.6932 67.2102C97.8322 67.1796 97.973 67.1299 98.1075 67.064C98.379 66.931 98.6083 66.7401 98.745 66.5332C98.8817 66.3263 98.9146 66.1204 98.8365 65.9608ZM93.6727 69.5423L95.3527 69.3023C95.4878 69.2845 95.6168 69.2347 95.729 69.1572C95.8411 69.0796 95.9332 68.9765 95.9977 68.8564C96.0622 68.7362 96.0972 68.6025 96.0998 68.4662C96.1024 68.3298 96.0725 68.1949 96.0127 68.0723C95.4927 67.019 94.6327 66.879 93.4327 67.6523C93.1593 67.8257 92.9827 68.069 92.9027 68.3823C92.576 69.5757 91.7693 70.3423 90.4827 70.6823C89.7627 70.8757 89.7693 71.0257 90.5027 71.1323C91.6293 71.3057 92.4727 70.919 93.0327 69.9723C93.1793 69.7257 93.3927 69.5823 93.6727 69.5423ZM96.6327 73.2923C96.6534 73.4048 96.7064 73.5088 96.7851 73.5917C96.8639 73.6746 96.965 73.7329 97.0762 73.7594C97.1875 73.7858 97.304 73.7794 97.4117 73.7409C97.5193 73.7024 97.6135 73.6334 97.6827 73.5423L98.5027 72.4823C98.5577 72.4107 98.5914 72.3252 98.6 72.2353C98.6086 72.1455 98.5918 72.0547 98.5515 71.973C98.5112 71.8913 98.4489 71.8219 98.3715 71.7724C98.294 71.7229 98.2045 71.6952 98.1127 71.6923C96.9393 71.679 96.446 72.2123 96.6327 73.2923ZM90.3227 74.0523C89.3227 76.3823 90.2127 81.2023 92.9727 82.3423C93.466 82.5423 93.7993 82.389 93.9727 81.8823L95.1527 78.3723C95.191 78.2673 95.1898 78.1519 95.1492 78.0478C95.1086 77.9436 95.0315 77.8578 94.9323 77.8063C94.833 77.7548 94.7185 77.7413 94.6099 77.7682C94.5014 77.795 94.4064 77.8605 94.3427 77.9523L92.6027 80.2923C92.5607 80.3496 92.5073 80.3975 92.4457 80.4329C92.3842 80.4684 92.3159 80.4905 92.2453 80.4981C92.1747 80.5056 92.1034 80.4983 92.0357 80.4767C91.9681 80.455 91.9058 80.4195 91.8527 80.3723C91.1593 79.7723 90.9127 79.019 91.1127 78.1123C91.166 77.879 91.1593 77.649 91.0927 77.4223C90.7727 76.3823 90.696 75.3123 90.8627 74.2123C90.8839 74.1407 90.8758 74.0636 90.8402 73.998C90.8045 73.9324 90.7443 73.8836 90.6727 73.8623C90.6011 73.8411 90.524 73.8492 90.4583 73.8849C90.3927 73.9205 90.3439 73.9807 90.3227 74.0523ZM83.7027 86.4823C83.556 86.6823 83.5127 86.9123 83.5727 87.1723C83.6527 87.5457 83.8327 87.599 84.1127 87.3323C84.6927 86.7657 84.7793 86.1023 84.3727 85.3423C84.3433 85.2826 84.2943 85.2348 84.2339 85.207C84.1735 85.1791 84.1054 85.1728 84.0409 85.1892C83.9764 85.2057 83.9195 85.2437 83.8798 85.2971C83.8401 85.3505 83.8199 85.4159 83.8227 85.4823V86.1123C83.8227 86.2457 83.7827 86.369 83.7027 86.4823ZM114.813 88.3523C114.906 88.439 114.999 88.479 115.093 88.4723C115.193 88.459 115.273 88.389 115.333 88.2623C115.493 87.9423 115.486 87.6423 115.313 87.3623C115.206 87.2023 115.056 87.1357 114.863 87.1623L114.323 87.2323C114.207 87.2454 114.101 87.2997 114.024 87.3855C113.946 87.4713 113.903 87.5828 113.902 87.6994C113.901 87.8161 113.941 87.9301 114.017 88.0207C114.092 88.1112 114.197 88.1722 114.313 88.1923C114.393 88.2057 114.506 88.229 114.653 88.2623C114.719 88.2757 114.773 88.3057 114.813 88.3523ZM82.0827 90.8623C82.1227 90.489 81.976 90.149 81.6427 89.8423C81.5003 89.7172 81.3221 89.6542 81.1409 89.6651C80.9598 89.6759 80.7881 89.7599 80.6575 89.9014C80.527 90.043 80.4464 90.2325 80.4308 90.4349C80.4152 90.6373 80.4656 90.8389 80.5727 91.0023C81.666 92.6223 83.1827 93.1457 85.1227 92.5723C85.1899 92.5531 85.2479 92.5119 85.2877 92.4552C85.3274 92.3984 85.3465 92.3295 85.3419 92.2593C85.3373 92.1891 85.3092 92.1217 85.2623 92.0679C85.2153 92.0141 85.1521 91.9769 85.0827 91.9623L82.5927 91.5323C82.2193 91.4657 82.0493 91.2423 82.0827 90.8623Z" fill="#428EFF"/>
<path d="M42.1019 73.0223C41.7019 73.269 41.2752 73.4223 40.8219 73.4823C40.1485 73.5623 40.0952 73.4156 40.6619 73.0423L42.5719 71.7923C42.6264 71.7576 42.6897 71.7391 42.7543 71.739C42.8189 71.7389 42.8823 71.7573 42.9368 71.7919C42.9914 71.8266 43.035 71.876 43.0624 71.9346C43.0899 71.9931 43.1001 72.0582 43.0919 72.1223C43.0452 72.4423 42.8719 72.6423 42.5719 72.7223L42.1019 73.0223Z" fill="#428EFF"/>
<path d="M40.7823 77.6724C41.8423 78.259 42.8323 78.2257 43.7523 77.5724C44.079 77.3457 44.3057 77.0424 44.4323 76.6624L45.9323 72.0424C45.9637 71.9388 46.0278 71.8482 46.115 71.7842C46.2023 71.7202 46.3079 71.6862 46.4161 71.6873C46.5243 71.6884 46.6292 71.7246 46.7151 71.7904C46.801 71.8563 46.8632 71.9482 46.8923 72.0524C47.0923 72.7124 46.959 73.279 46.4923 73.7524C46.4394 73.8054 46.3955 73.8662 46.3623 73.9324C45.2957 76.1057 45.7823 77.5424 47.8223 78.2424C48.1223 78.3424 48.3857 78.2824 48.6123 78.0624L48.8723 77.7924C49.0657 77.599 49.299 77.5257 49.5723 77.5724C50.2923 77.7057 50.719 78.1424 50.8523 78.8824C50.8828 79.0664 50.9817 79.2321 51.1291 79.3464C51.2766 79.4607 51.4618 79.515 51.6476 79.4986C51.8334 79.4821 52.0062 79.3961 52.1313 79.2578C52.2564 79.1194 52.3246 78.9389 52.3223 78.7524V77.2024C52.3223 76.897 52.4045 76.5972 52.5603 76.3345C52.7161 76.0718 52.9398 75.856 53.2079 75.7097C53.476 75.5634 53.7785 75.492 54.0837 75.503C54.3889 75.514 54.6855 75.6071 54.9423 75.7724L58.7623 78.2024C58.9105 78.2988 59.0174 78.4448 59.0623 78.6124C59.6823 80.8724 60.6023 82.9957 61.8223 84.9824C62.3157 85.7757 62.3223 86.5424 61.8423 87.2824C61.7487 87.4233 61.7014 87.5902 61.7068 87.7603C61.7121 87.9303 61.77 88.0952 61.8723 88.2324C62.6323 89.259 63.6657 89.9624 64.9723 90.3424C65.0971 90.3814 65.208 90.4557 65.2917 90.5562C65.3754 90.6567 65.4283 90.7792 65.4441 90.909C65.46 91.0388 65.438 91.1704 65.381 91.2881C65.3239 91.4057 65.2341 91.5044 65.1223 91.5724C64.1823 92.1324 63.5557 92.9157 63.2423 93.9224C63.2223 93.9923 63.2217 94.0664 63.2406 94.1366C63.2596 94.2068 63.2973 94.2706 63.3497 94.321C63.4022 94.3714 63.4674 94.4065 63.5383 94.4226C63.6093 94.4387 63.6833 94.4352 63.7523 94.4124L66.2423 93.5324C66.7957 93.339 67.0723 93.5357 67.0723 94.1224V95.5424C67.0728 95.6773 67.1059 95.8093 67.1688 95.9264C67.2317 96.0434 67.3223 96.1417 67.4323 96.2124C67.879 96.5057 68.1257 96.8957 68.1723 97.3824C68.1779 97.4343 68.1679 97.4864 68.1435 97.5324C68.1192 97.5784 68.0815 97.6163 68.0351 97.6417C67.9886 97.667 67.9353 97.6787 67.8816 97.6753C67.8279 97.6718 67.7761 97.6535 67.7323 97.6224L65.6923 96.0724C65.5677 95.9843 65.416 95.943 65.2638 95.9556C65.1117 95.9681 64.9689 96.0339 64.8604 96.1412C64.7518 96.2485 64.6846 96.3906 64.6703 96.5426C64.656 96.6946 64.6957 96.8467 64.7823 96.9724L67.2723 100.322C67.3117 100.368 67.3392 100.423 67.3523 100.482C67.9923 103.212 69.7123 103.862 69.5723 107.072C69.5698 107.138 69.5541 107.203 69.5261 107.262C69.4981 107.322 69.4583 107.376 69.4091 107.42C69.3599 107.465 69.3021 107.5 69.2392 107.522C69.1763 107.545 69.1094 107.555 69.0423 107.552L67.2423 107.472C66.629 107.446 66.4723 107.699 66.7723 108.232C67.4323 109.419 68.2957 109.642 69.3623 108.902C69.4444 108.845 69.5431 108.817 69.643 108.822C69.7428 108.827 69.8381 108.866 69.9138 108.931C69.9894 108.996 70.0412 109.085 70.0608 109.183C70.0805 109.281 70.067 109.383 70.0223 109.472L68.1823 113.042C68.0945 113.212 67.9445 113.341 67.7637 113.402C67.5829 113.464 67.3854 113.453 67.2123 113.372C64.7457 112.232 63.439 110.349 63.2923 107.722C63.2723 107.389 63.0223 106.999 62.5423 106.552C62.4004 106.42 62.2872 106.26 62.2098 106.081C62.1324 105.902 62.0924 105.708 62.0923 105.512C62.099 103.979 61.729 102.529 60.9823 101.162C60.9601 101.118 60.9468 101.07 60.9434 101.022C60.94 100.974 60.9464 100.926 60.9623 100.882L61.6923 98.6223C61.7182 98.5406 61.7264 98.4544 61.7167 98.3694C61.7069 98.2845 61.6793 98.2027 61.6357 98.1298C61.5921 98.0568 61.5336 97.9943 61.464 97.9465C61.3944 97.8986 61.3154 97.8665 61.2323 97.8524L59.9423 97.6324C59.5423 97.5657 59.289 97.3324 59.1823 96.9324C58.1723 93.0824 54.5823 86.0424 49.8223 86.1524C43.5223 86.3024 42.5723 93.9624 39.3223 98.0224C39.1157 98.2757 38.9857 98.5657 38.9323 98.8924C38.6123 100.912 37.679 102.546 36.1323 103.792C35.7723 104.079 35.8057 104.302 36.2324 104.462L37.0524 104.762C37.299 104.856 37.4257 105.032 37.4323 105.292C37.479 107.819 37.4557 109.639 37.3623 110.752C36.8023 117.632 27.8623 117.202 27.4923 112.962C27.4657 112.622 27.349 112.319 27.1423 112.052C22.8923 106.392 26.2023 102.152 26.6423 96.1424C26.6685 95.7934 26.8137 95.4678 27.0523 95.2224C28.8257 93.3824 30.2857 91.3057 31.4323 88.9924C31.519 88.8257 31.5157 88.6557 31.4223 88.4824C30.709 87.1157 30.9557 86.059 32.1623 85.3124C32.4357 85.1457 32.5723 85.2224 32.5723 85.5424C32.5723 86.529 33.1357 87.0124 34.2623 86.9924C34.7823 86.979 34.869 86.779 34.5223 86.3924L32.9323 84.5824C32.7857 84.4157 32.729 84.2224 32.7623 84.0024C33.049 82.2824 33.699 80.689 34.7123 79.2224C34.899 78.949 34.999 78.6424 35.0123 78.3024C35.0723 76.9357 35.749 75.969 37.0423 75.4024C37.3623 75.2624 37.5357 75.3657 37.5623 75.7124L37.5923 76.1224C37.6028 76.2512 37.6575 76.3724 37.7471 76.4655C37.8368 76.5585 37.9559 76.6178 38.0842 76.6331C38.2125 76.6484 38.3422 76.6188 38.4512 76.5494C38.5602 76.48 38.6419 76.3751 38.6823 76.2524L39.3024 74.3724C39.429 73.979 39.6423 73.9257 39.9423 74.2124C40.809 75.039 41.0124 75.969 40.5524 77.0024C40.4257 77.2957 40.5023 77.519 40.7823 77.6724ZM38.1323 78.4124C37.8857 78.279 37.5957 77.8424 37.2623 77.1024C37.0357 76.5957 36.739 76.5524 36.3723 76.9724L35.7723 77.6424C35.7091 77.7164 35.6619 77.8026 35.6335 77.8956C35.6051 77.9885 35.5963 78.0861 35.6076 78.1821C35.6189 78.2781 35.65 78.3704 35.6991 78.4531C35.7481 78.5358 35.8139 78.607 35.8923 78.6624L38.0023 80.1824C38.2023 80.329 38.369 80.299 38.5023 80.0924C38.9757 79.3524 38.8523 78.7924 38.1323 78.4124ZM36.5524 96.5824C36.5216 96.7047 36.5271 96.8334 36.5682 96.9527C36.6094 97.0721 36.6844 97.1768 36.784 97.2542C36.8837 97.3316 37.0038 97.3783 37.1295 97.3887C37.2553 97.399 37.3814 97.3725 37.4923 97.3124C38.4523 96.7857 38.7157 96.1624 38.2823 95.4424C38.1981 95.3061 38.0759 95.1974 37.9306 95.1298C37.7853 95.0623 37.6235 95.0387 37.465 95.0621C37.3065 95.0855 37.1583 95.1548 37.0388 95.2615C36.9192 95.3682 36.8336 95.5075 36.7923 95.6624L36.5524 96.5824ZM29.0823 96.8524C28.869 96.999 28.779 97.189 28.8123 97.4224C28.8227 97.4972 28.8535 97.5678 28.9014 97.6263C28.9493 97.6848 29.0124 97.7289 29.0838 97.7537C29.1552 97.7786 29.2321 97.7832 29.306 97.767C29.3798 97.7509 29.4478 97.7147 29.5023 97.6624L30.2523 96.9224C30.3189 96.8551 30.3663 96.7713 30.3896 96.6796C30.4128 96.5879 30.4111 96.4916 30.3845 96.4008C30.358 96.3099 30.3076 96.2279 30.2387 96.1631C30.1697 96.0983 30.0846 96.0532 29.9923 96.0324C29.639 95.9524 29.4223 96.0924 29.3423 96.4524C29.3105 96.6132 29.2175 96.7563 29.0823 96.8524ZM29.7623 103.782C30.1357 104.076 30.539 104.272 30.9723 104.372C31.399 104.459 31.6523 104.292 31.7323 103.872L31.8323 103.342C31.939 102.802 31.7223 102.582 31.1823 102.682L29.1923 103.042C28.8657 103.102 28.8057 103.262 29.0123 103.522C29.1857 103.736 29.4357 103.822 29.7623 103.782ZM65.8219 108.288C65.8926 108.16 65.872 107.989 65.7645 107.811C65.6571 107.634 65.4716 107.465 65.2489 107.341C65.0263 107.218 64.7847 107.15 64.5772 107.153C64.3698 107.156 64.2135 107.229 64.1427 107.357C64.0721 107.485 64.0927 107.656 64.2002 107.833C64.3076 108.011 64.4931 108.18 64.7157 108.303C64.9384 108.427 65.18 108.494 65.3875 108.492C65.5949 108.489 65.7512 108.415 65.8219 108.288Z" fill="#428EFF"/>
<path d="M50.7827 72.9323C50.136 73.1256 49.4893 73.1856 48.8427 73.1123C48.7158 73.0991 48.5974 73.0358 48.5133 72.9364C48.4293 72.837 48.3865 72.7097 48.3945 72.5824C48.4025 72.4551 48.4605 72.3382 48.5558 72.2576C48.6511 72.1769 48.7759 72.1391 48.9027 72.1523L52.2127 72.5323C52.2786 72.5387 52.3407 72.566 52.39 72.6102C52.4393 72.6544 52.4731 72.7132 52.4865 72.7781C52.4999 72.8429 52.4922 72.9103 52.4645 72.9705C52.4369 73.0306 52.3906 73.0803 52.3327 73.1123L51.4327 73.6323C51.1793 73.7856 51.0593 73.7123 51.0727 73.4123C51.0727 73.3256 51.0727 73.2356 51.0727 73.1423C51.0727 72.949 50.976 72.879 50.7827 72.9323Z" fill="#428EFF"/>
<path d="M48.6128 75.9423C48.0328 75.4823 48.1028 75.1723 48.8228 75.0123L50.2928 74.6923C50.431 74.6599 50.5755 74.6753 50.7031 74.7362C50.8307 74.797 50.934 74.8998 50.9963 75.0279C51.0587 75.156 51.0764 75.302 51.0467 75.4425C51.0171 75.5829 50.9417 75.7097 50.8328 75.8023C50.0528 76.449 49.3128 76.4956 48.6128 75.9423Z" fill="#428EFF"/>
</svg>
