<svg width="135" height="85" viewBox="0 0 135 85" fill="none" xmlns="http://www.w3.org/2000/svg">
<path d="M62.5735 12.0161L62.2935 11.7861C62.0135 11.5594 61.9201 11.2728 62.0135 10.9261C62.6835 8.2761 63.8535 2.0961 66.5435 0.856102C71.4935 -1.4239 73.9035 5.8361 73.8335 9.3461C73.6201 19.5061 73.2101 29.6628 72.6035 39.8161C72.2435 45.9561 71.3035 52.1261 69.8835 58.1161C69.2835 60.6561 69.4635 63.4661 68.9335 65.8261C68.5335 67.6061 68.1501 69.3894 67.7835 71.1761C66.8235 75.8261 64.7935 79.2861 62.8335 83.4861C62.2401 84.7528 61.2335 85.0661 59.8135 84.4261C59.6694 84.36 59.5411 84.2632 59.4376 84.1423C59.334 84.0215 59.2576 83.8796 59.2135 83.7261C58.9001 82.5594 58.3335 81.5528 57.5135 80.7061C57.2735 80.4528 57.1601 80.1528 57.1735 79.8061C57.2535 78.2528 56.8101 76.3594 55.8435 74.1261C55.4168 73.1461 55.6068 72.1961 56.4135 71.2761C56.6268 71.0361 56.7468 70.7528 56.7735 70.4261C57.0135 67.5561 56.7435 64.8361 57.1735 62.0961C58.3868 54.3228 59.4401 46.5261 60.3335 38.7061C60.5601 36.7194 60.6868 33.3694 60.7135 28.6561C60.7401 23.3094 61.4501 18.0428 62.8435 12.8561C62.9301 12.5161 62.8401 12.2361 62.5735 12.0161ZM61.3735 78.5961L59.1235 78.3561C58.3101 78.2694 58.1535 78.5528 58.6535 79.2061C59.1601 79.8661 59.8901 80.1761 60.8435 80.1361C61.5501 80.1028 61.8701 79.7394 61.8035 79.0461C61.795 78.9329 61.7475 78.8261 61.6691 78.7441C61.5907 78.662 61.4862 78.6097 61.3735 78.5961Z" fill="#38A852"/>
<path d="M108.884 24.9861C108.257 25.7528 107.5 26.0961 106.614 26.0161C101.784 25.5761 93.4436 24.7261 89.6736 21.5261C89.5103 21.3865 89.3872 21.2055 89.3169 21.0016C89.2466 20.7977 89.2317 20.5784 89.2736 20.3661C89.7136 18.1394 89.327 16.0728 88.1136 14.1661C87.907 13.8394 87.857 13.4861 87.9636 13.1061C88.6436 10.6994 90.0736 10.0628 92.2536 11.1961C100.354 15.4361 110.714 13.1961 119.554 15.1961C123.854 16.1761 126.994 16.5961 130.834 17.1161C133.414 17.4661 133.964 20.5361 134.734 22.5261C134.854 22.8461 134.81 23.1428 134.604 23.4161C133.614 24.7361 132.254 25.5861 131.384 26.9061C123.314 39.1461 112.044 47.1161 99.4736 55.0461C98.0736 55.9328 96.9136 56.5194 95.9936 56.8061C95.8523 56.8481 95.7022 56.8508 95.5594 56.8138C95.4167 56.7768 95.2868 56.7015 95.1836 56.5961L93.4436 54.8161C93.1436 54.5094 93.0503 54.1494 93.1636 53.7361C93.377 52.9428 93.837 52.4294 94.5436 52.1961C94.897 52.0761 95.1503 51.8494 95.3036 51.5161C97.9536 45.7061 103.024 43.6861 106.524 38.8161C108.69 35.8028 111.104 33.0061 113.764 30.4261C113.97 30.2261 114.214 30.0994 114.494 30.0461L116.104 29.7761C116.69 29.6761 116.82 29.3761 116.494 28.8761C115.307 27.0561 113.73 26.3628 111.764 26.7961C111.517 26.8561 111.274 26.8428 111.034 26.7561C110.207 26.4694 109.944 26.0661 110.244 25.5461C110.444 25.2061 110.367 24.9561 110.014 24.7961C109.547 24.5761 109.17 24.6394 108.884 24.9861ZM121.031 24.0685C120.964 23.884 120.747 23.7626 120.426 23.731C120.105 23.6995 119.708 23.7604 119.322 23.9003C118.935 24.0402 118.591 24.2477 118.365 24.4772C118.139 24.7066 118.049 24.9392 118.116 25.1237C118.183 25.3082 118.401 25.4296 118.721 25.4612C119.042 25.4927 119.439 25.4318 119.826 25.2919C120.212 25.152 120.556 24.9445 120.782 24.715C121.008 24.4856 121.098 24.253 121.031 24.0685Z" fill="#38A852"/>
<path d="M19.0137 48.6761C20.9137 47.4561 22.0137 47.0461 24.3037 46.8761C32.777 46.2561 41.2137 45.3661 49.6137 44.2061C52.6937 43.7761 55.7137 44.8461 54.9837 48.4061C54.3137 51.6761 47.8837 54.1261 45.1437 54.8161C38.6104 56.4761 32.6437 59.0361 27.2437 62.4961C26.9237 62.7028 26.6404 62.8028 26.3937 62.7961C26.187 62.7894 26.017 62.7394 25.8837 62.6461C25.6104 62.4661 25.6137 62.2894 25.8937 62.1161L30.0637 59.5461C30.6504 59.1794 30.6237 58.8661 29.9837 58.6061C27.3837 57.5661 26.4337 60.4861 24.2537 61.3261C23.8937 61.4728 23.7504 61.7361 23.8237 62.1161L23.9837 62.9461C24.0504 63.2728 23.9237 63.4728 23.6037 63.5461L17.5837 64.9661C17.4926 64.989 17.3964 64.9815 17.31 64.9446C17.2236 64.9077 17.1516 64.8435 17.1051 64.7619C17.0587 64.6802 17.0402 64.5856 17.0526 64.4924C17.0649 64.3993 17.1075 64.3128 17.1737 64.2461C18.7637 62.5761 20.2937 63.3661 21.8637 62.1361C22.0061 62.0234 22.1014 61.8616 22.131 61.6824C22.1605 61.5031 22.1222 61.3193 22.0234 61.1669C21.9247 61.0144 21.7727 60.9042 21.5971 60.8578C21.4214 60.8115 21.2348 60.8322 21.0737 60.9161C20.2737 61.3428 19.4137 61.5128 18.4937 61.4261C18.147 61.3928 17.8204 61.4661 17.5137 61.6461C16.5737 62.2061 16.1137 63.0294 16.1337 64.1161C16.1404 64.4294 15.9904 64.6161 15.6837 64.6761C13.737 65.0428 11.7904 65.2494 9.84369 65.2961C5.34369 65.3961 0.763687 67.4661 0.593687 60.3661C0.533687 57.9794 1.09702 55.7794 2.28369 53.7661C5.49369 48.3061 7.82369 42.6461 10.5937 36.9761C11.427 35.2761 13.8837 32.4428 17.9637 28.4761C18.2837 28.1694 18.297 27.8528 18.0037 27.5261L17.3337 26.7861C17.1137 26.5394 17.077 26.2661 17.2237 25.9661C18.537 23.2661 20.177 20.7894 22.1437 18.5361C24.2037 16.1761 26.8237 15.6061 29.6537 14.4661C29.967 14.3394 30.2737 14.3494 30.5737 14.4961L33.3837 15.8061C34.437 16.2994 34.747 17.0828 34.3137 18.1561C32.2937 23.2261 30.6837 28.0961 27.6837 32.7261C24.4237 37.7528 21.3437 42.8928 18.4437 48.1461C18.3993 48.2244 18.3826 48.3154 18.3963 48.4043C18.41 48.4933 18.4534 48.575 18.5193 48.6363C18.5852 48.6976 18.6699 48.7349 18.7596 48.7421C18.8493 48.7493 18.9388 48.7261 19.0137 48.6761Z" fill="#38A852"/>
</svg>
