<svg width="145" height="146" viewBox="0 0 145 146" fill="none" xmlns="http://www.w3.org/2000/svg">
<path d="M114.45 93.6348C114.157 93.4748 113.99 93.7482 113.95 94.4548C113.942 94.6247 113.868 94.785 113.743 94.9024C113.619 95.0198 113.453 95.0851 113.28 95.0848H112.36C112.247 95.0858 112.135 95.0585 112.035 95.0054C111.935 94.9523 111.85 94.8751 111.787 94.7807C111.725 94.6863 111.687 94.5778 111.677 94.465C111.667 94.3523 111.685 94.2388 111.73 94.1348L112.13 93.1648C112.182 93.0385 112.191 92.898 112.156 92.7654C112.121 92.6328 112.044 92.5156 111.936 92.4321C111.829 92.3486 111.697 92.3036 111.562 92.3041C111.427 92.3046 111.296 92.3506 111.19 92.4348C109.977 93.3682 109.903 94.3448 110.97 95.3648C111.01 95.4118 111.033 95.471 111.035 95.5328C111.037 95.5946 111.017 95.6551 110.98 95.7042C110.942 95.7533 110.889 95.7882 110.829 95.8028C110.769 95.8175 110.706 95.8112 110.65 95.7848L110.2 95.5248C109.913 95.3515 109.61 95.3082 109.29 95.3948C108.43 95.6348 108.33 96.2715 108.99 97.3048" stroke="#FFBB01" stroke-width="2"/>
<path d="M48.8798 25.8848C48.9198 24.3648 48.5531 23.4082 47.7798 23.0148C47.5398 22.8882 47.2831 22.8515 47.0098 22.9048L45.8498 23.1248C45.7675 23.14 45.6821 23.1286 45.6063 23.0925C45.5304 23.0563 45.4681 22.9973 45.4288 22.9242C45.3894 22.8511 45.3751 22.7679 45.3879 22.6869C45.4007 22.6059 45.4399 22.5315 45.4998 22.4748C46.8998 21.1082 48.5465 20.1582 50.4398 19.6248" stroke="#FFBB01" stroke-width="2"/>
<path d="M56.98 77.1448C57.3667 77.5315 57.2366 77.9448 56.59 78.3848C56.3166 78.5715 56.27 78.8015 56.45 79.0748C58.77 82.6148 60.69 82.9648 62.21 80.1248" stroke="#FFBB01" stroke-width="2"/>
<path d="M114.45 93.6348C114.156 93.4748 113.99 93.7482 113.95 94.4548C113.942 94.6247 113.868 94.785 113.743 94.9024C113.618 95.0198 113.452 95.0851 113.28 95.0848H112.36C112.247 95.0858 112.135 95.0585 112.035 95.0054C111.935 94.9523 111.85 94.875 111.787 94.7807C111.725 94.6863 111.687 94.5778 111.677 94.465C111.667 94.3523 111.685 94.2388 111.73 94.1348L112.13 93.1648C112.182 93.0385 112.191 92.898 112.156 92.7654C112.121 92.6328 112.043 92.5156 111.936 92.4321C111.828 92.3486 111.697 92.3036 111.562 92.3041C111.427 92.3046 111.296 92.3506 111.19 92.4348C109.976 93.3682 109.903 94.3448 110.97 95.3648C111.01 95.4117 111.033 95.471 111.035 95.5328C111.036 95.5946 111.017 95.6551 110.98 95.7042C110.942 95.7533 110.889 95.7881 110.829 95.8028C110.769 95.8175 110.706 95.8111 110.65 95.7848L110.2 95.5248C109.913 95.3515 109.61 95.3082 109.29 95.3948C108.43 95.6348 108.33 96.2715 108.99 97.3048L106.79 96.7448C106.719 96.7264 106.653 96.694 106.596 96.6495C106.538 96.605 106.49 96.5493 106.455 96.4858C106.419 96.4223 106.397 96.3523 106.389 96.2799C106.382 96.2076 106.389 96.1344 106.41 96.0648C108.07 90.8048 113.97 90.8948 116.77 86.0248C116.943 85.7248 117.176 85.4848 117.47 85.3048C119.01 84.3648 120.16 83.0548 120.92 81.3748C121 81.1923 121.008 80.986 120.941 80.7995C120.874 80.6129 120.737 80.4607 120.56 80.3748C118.766 79.5082 117.376 78.2348 116.39 76.5548C116.196 76.2348 116.193 75.9115 116.38 75.5848C117.753 73.2048 119.71 72.7315 122.25 74.1648C122.343 74.2174 122.447 74.2474 122.553 74.2523C122.66 74.2572 122.766 74.237 122.864 74.1932C122.961 74.1493 123.047 74.0832 123.114 74.0001C123.181 73.917 123.228 73.8193 123.25 73.7148C123.543 72.3148 124.386 71.5582 125.78 71.4448C125.958 71.4313 126.128 71.369 126.273 71.2648C126.418 71.1607 126.531 71.0186 126.6 70.8543C126.669 70.69 126.692 70.5098 126.665 70.3335C126.639 70.1571 126.564 69.9915 126.45 69.8548C124.016 66.9415 123.913 64.0115 126.14 61.0648C126.313 60.8351 126.42 60.5625 126.45 60.2762C126.48 59.99 126.431 59.7011 126.308 59.4407C126.186 59.1804 125.995 58.9584 125.755 58.7987C125.516 58.6391 125.237 58.5478 124.95 58.5348C118.29 58.1948 119.84 50.3248 120.25 46.1848C120.29 45.7982 120.193 45.4482 119.96 45.1348L118.25 42.8548C118.076 42.6282 118.01 42.3748 118.05 42.0948L118.3 40.1848C118.38 39.5982 118.143 39.4048 117.59 39.6048C116.43 40.0182 115.696 40.8082 115.39 41.9748C115.283 42.3615 115.046 42.4748 114.68 42.3148L112.94 41.5648C112.633 41.4248 112.313 41.3882 111.98 41.4548C110.913 41.6748 110.176 41.2248 109.77 40.1048C109.643 39.7582 109.666 39.4215 109.84 39.0948L113.21 32.6348C113.37 32.3282 113.316 32.0648 113.05 31.8448C109.656 29.1048 106.076 28.9782 102.31 31.4648C102.057 31.6263 101.753 31.6936 101.45 31.6548C97.8998 31.1248 97.8398 27.2048 96.2198 24.6248C94.5898 22.0148 91.2198 20.6048 88.5598 19.0848C84.4698 16.7548 80.5098 18.6548 77.4898 21.7648C77.3188 21.9423 77.1107 22.0797 76.8804 22.1672C76.6501 22.2547 76.4033 22.2902 76.1576 22.2711C75.912 22.252 75.6736 22.1787 75.4596 22.0566C75.2456 21.9345 75.0612 21.7666 74.9198 21.5648C71.1198 16.1248 67.2498 18.3848 62.0398 19.4148C61.8839 19.4484 61.7405 19.5241 61.6257 19.6336C61.5109 19.7431 61.4292 19.882 61.3898 20.0348C60.9298 21.8948 59.8398 23.2382 58.1198 24.0648C57.9771 24.133 57.8205 24.1666 57.6624 24.1632C57.5044 24.1597 57.3493 24.1192 57.2098 24.0448C55.9431 23.3648 54.7031 23.4448 53.4898 24.2848C53.4336 24.3252 53.3694 24.353 53.3013 24.3664C53.2333 24.3797 53.1629 24.3783 53.0949 24.3622C53.0269 24.3462 52.9627 24.3158 52.9067 24.2732C52.8507 24.2305 52.804 24.1766 52.7698 24.1148C52.3164 23.2815 51.7965 22.8582 51.2098 22.8448C49.4098 22.7915 48.6331 23.8048 48.8798 25.8848C48.9198 24.3648 48.5531 23.4082 47.7798 23.0148C47.5398 22.8882 47.2831 22.8515 47.0098 22.9048L45.8498 23.1248C45.7675 23.14 45.6821 23.1286 45.6063 23.0925C45.5304 23.0563 45.4681 22.9973 45.4288 22.9242C45.3894 22.8511 45.3751 22.7678 45.3879 22.6869C45.4007 22.6059 45.4399 22.5315 45.4998 22.4748C46.8998 21.1082 48.5465 20.1582 50.4398 19.6248C51.9531 18.1848 53.1865 17.8648 54.1398 18.6648C54.334 18.8288 54.5669 18.9404 54.8164 18.989C55.0659 19.0375 55.3237 19.0215 55.5652 18.9423C55.8067 18.8631 56.024 18.7235 56.1963 18.5366C56.3687 18.3498 56.4904 18.122 56.5498 17.8748C57.6998 13.1148 66.0498 10.8648 70.2298 12.3648C72.7365 13.2648 74.5565 13.9682 75.6898 14.4748C75.9831 14.6082 76.2731 14.5982 76.5598 14.4448C78.5798 13.3748 80.3698 11.9448 82.6898 11.9448C88.3198 11.9248 93.2598 14.1648 96.4798 18.8148C97.4398 20.2082 98.3698 21.4848 99.2698 22.6448C99.6772 23.171 100.212 23.5848 100.825 23.8472C101.437 24.1096 102.106 24.2121 102.77 24.1448L108.95 23.5248C109.207 23.4991 109.465 23.5743 109.67 23.7348C112.89 26.2082 115.456 29.2382 117.37 32.8248C117.429 32.9298 117.46 33.0469 117.46 33.1648L117.56 36.3148C117.562 36.4122 117.585 36.5078 117.629 36.5949C117.673 36.682 117.736 36.7584 117.813 36.8186C117.891 36.8788 117.981 36.9213 118.077 36.9432C118.173 36.965 118.273 36.9656 118.37 36.9448C120.03 36.5915 121.116 36.9382 121.63 37.9848C123.87 42.6248 125.656 45.9282 126.99 47.8948C127.138 48.1195 127.195 48.3913 127.15 48.6548L126.23 53.4948C126.203 53.6482 126.256 53.6815 126.39 53.5948L127.1 53.1248C127.406 52.9182 127.706 52.9282 128 53.1548L128.91 53.8548C129.27 54.1282 129.29 54.4215 128.97 54.7348L128.53 55.1848C128.444 55.2672 128.392 55.3784 128.383 55.498C128.374 55.6175 128.408 55.7372 128.48 55.8348L131.43 59.8448C131.763 60.2982 131.65 60.5582 131.09 60.6248C128.12 60.9848 129.62 66.3048 130.12 67.9448C130.28 68.4782 130.623 68.8382 131.15 69.0248C131.723 69.2315 132.17 69.1748 132.49 68.8548C132.723 68.6148 132.816 68.2282 132.77 67.6948C132.603 65.7082 132.3 63.7248 131.86 61.7448C131.844 61.6662 131.854 61.5844 131.888 61.5118C131.922 61.4393 131.979 61.3799 132.051 61.3426C132.122 61.3054 132.203 61.2923 132.282 61.3053C132.361 61.3183 132.434 61.3568 132.49 61.4148L134.09 63.1348C134.316 63.3815 134.326 63.6348 134.12 63.8948C133.273 64.9482 133.156 66.1782 133.77 67.5848C134.41 69.0448 133.67 70.3448 132.85 71.8948C131.463 74.5148 129.16 76.8082 125.94 78.7748C124.566 79.6082 124.323 80.8048 125.21 82.3648C125.396 82.6848 125.446 83.0282 125.36 83.3948C125.073 84.5615 125.136 85.7282 125.55 86.8948C125.591 87.0105 125.606 87.134 125.593 87.2567C125.581 87.3793 125.543 87.4981 125.48 87.6048C125.106 88.2182 124.596 88.6348 123.95 88.8548C123.616 88.9615 123.396 89.1848 123.29 89.5248C122.356 92.5782 120.343 94.7715 117.25 96.1048C116.843 96.2848 116.586 96.1582 116.48 95.7248L116.07 94.0448C116.003 93.7715 115.83 93.6148 115.55 93.5748C115.216 93.5282 114.85 93.5482 114.45 93.6348ZM124.56 51.1448C124.986 49.9115 124.873 48.7282 124.22 47.5948C124.174 47.5202 124.104 47.4634 124.021 47.4335C123.938 47.4036 123.848 47.4025 123.765 47.4302C123.682 47.458 123.61 47.513 123.562 47.5865C123.514 47.6599 123.492 47.7474 123.5 47.8348C123.633 49.0482 123.163 49.9048 122.09 50.4048C122.001 50.4445 121.925 50.5082 121.87 50.5889C121.816 50.6695 121.785 50.7641 121.781 50.8622C121.776 50.9604 121.799 51.0582 121.847 51.1451C121.894 51.232 121.965 51.3045 122.05 51.3548L123.52 52.1948C123.826 52.3748 124.12 52.3515 124.4 52.1248C124.72 51.8648 124.773 51.5382 124.56 51.1448Z" fill="#FFBB01"/>
<path d="M56.98 77.1448C57.3666 77.5315 57.2366 77.9448 56.59 78.3848C56.3166 78.5715 56.27 78.8015 56.45 79.0748C58.77 82.6148 60.69 82.9648 62.21 80.1248C69.25 72.0515 76.4133 65.3482 83.7 60.0148C86.06 58.2848 87.5 56.1148 89.86 55.0048C94.02 53.0448 97.62 51.1648 102.12 52.2448C102.48 52.3315 102.68 52.5582 102.72 52.9248C102.89 54.6048 102.97 56.2448 101.86 57.6948C98.79 61.6948 96.21 65.4848 92.26 68.7748C88.82 71.6348 85.4133 74.5348 82.04 77.4748C79.79 79.4248 75.55 81.9248 73.07 85.4348C72.8741 85.7093 72.6076 85.9239 72.3 86.0548C68.64 87.5948 65.54 91.1148 62 92.0248C61.6733 92.1115 61.3533 92.0882 61.04 91.9548C56.23 89.8348 55.33 86.4048 52.29 83.0248C50.35 80.8648 44.79 74.5248 45.56 71.5148C45.6158 71.2916 45.725 71.0854 45.8783 70.9137C46.0315 70.7421 46.2241 70.6103 46.4396 70.5296C46.6551 70.4489 46.8869 70.4218 47.1152 70.4506C47.3434 70.4794 47.5613 70.5632 47.75 70.6948L56.98 77.1448ZM64.13 83.3548C63.6566 83.2482 63.3866 83.4048 63.32 83.8248C63.3098 83.8882 63.3135 83.953 63.331 84.0148C63.3485 84.0765 63.3793 84.1337 63.4212 84.1823C63.4631 84.2309 63.5152 84.2697 63.5737 84.2961C63.6322 84.3224 63.6958 84.3356 63.76 84.3348H64.27C64.3177 84.3345 64.3647 84.3229 64.4069 84.3008C64.4491 84.2788 64.4852 84.247 64.5119 84.2084C64.5386 84.1699 64.5552 84.1256 64.5601 84.0796C64.565 84.0336 64.5581 83.9873 64.54 83.9448C64.5066 83.8648 64.4766 83.7748 64.45 83.6748C64.41 83.5015 64.3033 83.3948 64.13 83.3548Z" fill="#FFBB01"/>
<path d="M50.44 19.6248C48.5467 20.1582 46.9 21.1082 45.5 22.4748C45.4402 22.5315 45.4009 22.6059 45.3881 22.6869C45.3753 22.7679 45.3896 22.8511 45.429 22.9242C45.4684 22.9973 45.5306 23.0563 45.6065 23.0925C45.6824 23.1286 45.7678 23.14 45.85 23.1248L47.01 22.9048C47.2834 22.8515 47.54 22.8882 47.78 23.0148C48.5534 23.4082 48.92 24.3648 48.88 25.8848C48.36 26.5315 47.8 26.8982 47.2 26.9848C46.8449 27.0347 46.5173 27.1947 46.2616 27.4431C46.0058 27.6915 45.8342 28.0165 45.7699 28.3741C45.7056 28.7317 45.7516 29.1047 45.9019 29.4428C46.0521 29.781 46.2993 30.0679 46.61 30.2648C46.7167 30.3382 46.8134 30.4515 46.9 30.6048C47.1334 31.0182 47.05 31.3515 46.65 31.6048C45.01 32.6382 43.9134 34.0748 43.36 35.9148C43.3357 35.9942 43.2949 36.0676 43.2404 36.1299C43.1858 36.1923 43.1189 36.2423 43.044 36.2764C42.9691 36.3105 42.888 36.328 42.8062 36.3278C42.7245 36.3275 42.6439 36.3095 42.57 36.2748C41.4034 35.7282 40.4934 34.9082 39.84 33.8148C39.7134 33.6082 39.5267 33.5148 39.28 33.5348C37.36 33.7148 35.83 34.5748 34.69 36.1148C34.5658 36.2913 34.493 36.5026 34.48 36.7248C34.42 37.6848 34.7367 38.1415 35.43 38.0948C35.7034 38.0748 35.88 37.9348 35.96 37.6748C36.1267 37.1415 36.5 36.9582 37.08 37.1248C37.2319 37.1669 37.3695 37.2484 37.4786 37.361C37.5876 37.4736 37.6641 37.6131 37.7 37.7648L38.71 42.1548C38.7481 42.331 38.7186 42.5148 38.6276 42.669C38.5366 42.8231 38.3909 42.936 38.22 42.9848L36.13 43.6048C36.0254 43.6353 35.9314 43.6945 35.8589 43.7759C35.7864 43.8573 35.7382 43.9574 35.72 44.0648C35.62 44.6782 35.83 45.1682 36.35 45.5348C36.4753 45.6261 36.5683 45.7548 36.6155 45.9024C36.6627 46.05 36.6618 46.2088 36.6128 46.3558C36.5638 46.5028 36.4693 46.6304 36.3429 46.7201C36.2166 46.8098 36.065 46.857 35.91 46.8548C35.2167 46.8282 34.5667 46.6448 33.96 46.3048C33.6596 46.135 33.3169 46.0519 32.97 46.0648C30.9834 46.1448 29.9867 47.2548 29.98 49.3948C29.9734 49.7215 29.9167 49.9815 29.81 50.1748C29.51 50.6815 29.1734 50.7548 28.8 50.3948C28.7303 50.3277 28.6455 50.2785 28.5525 50.2512C28.4596 50.224 28.3612 50.2194 28.2654 50.238C28.1697 50.2565 28.0794 50.2977 28.0019 50.358C27.9245 50.4183 27.8621 50.4961 27.82 50.5848C27.3867 51.5315 27.35 52.1982 27.71 52.5848C27.9167 52.8048 28.2867 52.8715 28.82 52.7848C29.0734 52.7448 29.3167 52.6782 29.55 52.5848C29.6432 52.5459 29.745 52.532 29.8453 52.5444C29.9456 52.5569 30.0408 52.5954 30.1217 52.656C30.2025 52.7166 30.2661 52.7973 30.3061 52.8901C30.3462 52.9828 30.3613 53.0844 30.35 53.1848L29.9 57.2848C29.8897 57.3878 29.8567 57.4871 29.8034 57.5758C29.7501 57.6644 29.6779 57.7401 29.5918 57.7975C29.5057 57.8549 29.408 57.8925 29.3057 57.9076C29.2034 57.9227 29.099 57.9149 29 57.8848C27.2934 57.3782 25.61 57.4348 23.95 58.0548C23.4767 58.2348 23.28 58.5748 23.36 59.0748L24.54 66.0748C24.5605 66.1943 24.6045 66.3085 24.6697 66.4106C24.7348 66.5128 24.8197 66.601 24.9194 66.6699C25.0191 66.7388 25.1315 66.7872 25.2501 66.812C25.3687 66.8369 25.4911 66.8379 25.61 66.8148C29.27 66.0748 31.6 69.7248 28.79 72.3648C28.6234 72.5182 28.4267 72.6082 28.2 72.6348C26.4534 72.8282 24.8634 73.4248 23.43 74.4248C23.293 74.5213 23.1795 74.6479 23.0981 74.7951C23.0167 74.9423 22.9695 75.1063 22.96 75.2748C22.8667 76.8482 22.3 78.2082 21.26 79.3548C21.0654 79.5702 20.9409 79.8397 20.9031 80.1275C20.8653 80.4153 20.9159 80.7077 21.0483 80.966C21.1808 81.2243 21.3886 81.4362 21.6444 81.5736C21.9001 81.7109 22.1916 81.7671 22.48 81.7348C23.9134 81.5682 25.0567 82.0315 25.91 83.1248C26.0056 83.2471 26.064 83.3935 26.0782 83.5462C26.0924 83.6989 26.0618 83.8513 25.99 83.9848C24.42 86.9548 20.78 89.1549 19.94 91.8549C19 94.8949 19.7067 97.5648 22.06 99.8648C20.1 102.592 19.8734 104.205 21.38 104.705C12.48 108.845 12.73 94.1548 14.2 89.4348C14.76 87.6148 14.99 86.1548 16.79 85.7748C16.9532 85.7407 17.1059 85.6683 17.2356 85.5634C17.3653 85.4585 17.4685 85.3241 17.5367 85.1712C17.6049 85.0182 17.6362 84.851 17.6281 84.6831C17.62 84.5152 17.5727 84.3514 17.49 84.2048C12.56 75.6348 14.04 74.0748 20.21 67.3348C20.325 67.2115 20.3969 67.0542 20.4149 66.8865C20.4329 66.7188 20.3961 66.5498 20.31 66.4048C18.59 63.4948 18.5 62.7948 18.5 59.3648C18.5003 59.081 18.6037 58.8101 18.79 58.6048C19.81 57.4382 20.45 56.1048 20.71 54.6048C20.7395 54.4369 20.8194 54.2819 20.939 54.1604C21.0587 54.039 21.2125 53.9568 21.38 53.9248L22.92 53.6148C23.3534 53.5282 23.54 53.2648 23.48 52.8248C23.15 50.4548 22.7 48.2348 24.27 46.1848C25.8767 44.0782 27.83 42.3515 30.13 41.0048C30.4367 40.8182 30.53 40.5582 30.41 40.2248C28.71 35.6148 30.79 31.9748 33.58 28.1348C33.7616 27.8818 34.0243 27.6994 34.3242 27.618C34.6242 27.5365 34.9433 27.561 35.2285 27.6872C35.5138 27.8135 35.7479 28.0339 35.8919 28.3118C36.0359 28.5898 36.0811 28.9085 36.02 29.2148C35.9734 29.4282 35.9767 29.5915 36.03 29.7048C36.15 29.9582 36.35 30.0848 36.63 30.0848H36.97C37.1434 30.0848 37.2367 29.9982 37.25 29.8248C37.31 29.2315 37.11 28.8882 36.65 28.7948C36.5854 28.7822 36.5256 28.7517 36.4775 28.7066C36.4295 28.6615 36.3951 28.6038 36.3784 28.5401C36.3617 28.4764 36.3633 28.4092 36.383 28.3464C36.4028 28.2836 36.4399 28.2276 36.49 28.1848C37.3167 27.4782 38.2234 27.3715 39.21 27.8648C39.3075 27.9136 39.4142 27.9412 39.5231 27.9457C39.6321 27.9501 39.7407 27.9314 39.8418 27.8908C39.943 27.8501 40.0344 27.7885 40.1099 27.7099C40.1854 27.6313 40.2434 27.5375 40.28 27.4348C42.06 22.2615 45.4467 19.6582 50.44 19.6248ZM36.88 39.3748C36.1 38.7615 35.53 39.1382 35.17 40.5048C35.1253 40.6747 35.1313 40.854 35.1872 41.0206C35.2431 41.1871 35.3466 41.3337 35.4848 41.4421C35.623 41.5506 35.79 41.6162 35.965 41.6309C36.1401 41.6456 36.3156 41.6087 36.47 41.5248C37.23 41.1182 37.43 40.4848 37.07 39.6248C37.0305 39.5264 36.9649 39.44 36.88 39.3748ZM24.68 49.8548L25.61 49.5748C25.7258 49.5426 25.8264 49.4706 25.8942 49.3714C25.9621 49.2723 25.9927 49.1523 25.9807 49.0328C25.9688 48.9132 25.915 48.8017 25.8289 48.718C25.7428 48.6342 25.6299 48.5835 25.51 48.5748C24.9034 48.5215 24.46 48.7348 24.18 49.2148C23.82 49.8415 23.9867 50.0548 24.68 49.8548Z" fill="#FFBB01"/>
<path d="M56.98 77.1448L62.21 80.1248C60.69 82.9648 58.77 82.6148 56.45 79.0748C56.27 78.8015 56.3166 78.5715 56.59 78.3848C57.2366 77.9448 57.3667 77.5315 56.98 77.1448Z" fill="#FFBB01"/>
<path d="M114.45 93.6348L114.13 95.1648C114.057 95.4982 114.117 95.8082 114.31 96.0948C115.017 97.1348 114.914 98.1148 114 99.0348C113.849 99.1858 113.738 99.3713 113.675 99.5752C113.612 99.7791 113.6 99.9952 113.64 100.205C114.06 102.532 113.217 103.952 111.11 104.465C110.69 104.565 110.567 104.812 110.74 105.205L111.31 106.545C111.35 106.643 111.36 106.75 111.34 106.855C110.267 111.208 107.517 113.138 103.09 112.645C102.77 112.612 102.514 112.722 102.32 112.975C101.02 114.665 100.43 116.595 99.0302 118.025C96.9168 120.212 94.4502 122.008 91.6302 123.415C91.4394 123.509 91.2228 123.538 91.0134 123.499C90.8039 123.46 90.6129 123.355 90.4693 123.199C90.3257 123.043 90.2374 122.845 90.2177 122.635C90.198 122.425 90.248 122.214 90.3602 122.035C90.8135 121.288 90.8635 120.548 90.5102 119.815C90.4718 119.739 90.4172 119.672 90.3501 119.619C90.283 119.567 90.2052 119.53 90.1221 119.511C90.0391 119.491 89.9528 119.491 89.8695 119.509C89.7862 119.527 89.7079 119.563 89.6402 119.615L88.2302 120.705C88.1445 120.769 88.0805 120.859 88.0466 120.96C88.0127 121.062 88.0104 121.172 88.0402 121.275L88.5502 122.895C88.6702 123.275 88.5335 123.482 88.1402 123.515C86.5268 123.642 84.9568 123.948 83.4302 124.435C80.3702 125.415 73.9302 125.115 71.0302 123.295C70.3835 122.888 70.1202 122.335 70.2402 121.635C70.2666 121.465 70.2438 121.292 70.1746 121.136C70.1054 120.98 69.9927 120.847 69.8502 120.755C68.7835 120.062 68.1635 119.085 67.9902 117.825C67.9502 117.518 67.7768 117.352 67.4702 117.325C66.6168 117.238 66.0135 117.602 65.6602 118.415C65.586 118.584 65.4723 118.732 65.3292 118.845C65.1861 118.959 65.0181 119.034 64.8402 119.065C63.2402 119.332 61.7635 119.912 60.4102 120.805C60.1302 120.992 59.8235 121.085 59.4902 121.085H58.2502C57.9102 121.085 57.6035 121.188 57.3302 121.395C55.4235 122.828 53.8102 123.485 52.4902 123.365C49.3902 123.085 40.9902 120.465 39.3302 116.365C39.1835 115.998 38.9435 115.715 38.6102 115.515C37.1302 114.635 35.5168 114.342 33.7702 114.635C33.5286 114.674 33.2789 114.643 33.0502 114.545C29.7502 113.035 27.7702 109.385 25.2902 108.485C24.9789 108.368 24.7121 108.151 24.5302 107.865C23.5168 106.218 22.4668 105.165 21.3802 104.705C19.8735 104.205 20.1002 102.592 22.0602 99.8648C25.7735 100.518 29.0235 99.7915 31.8102 97.6848C32.0702 97.4848 32.3568 97.4315 32.6702 97.5248C36.7002 98.6748 34.7402 101.955 33.7602 104.555C32.9902 106.625 34.6102 108.245 36.7002 108.095C36.8583 108.082 37.0123 108.037 37.1532 107.964C37.2941 107.89 37.4189 107.788 37.5202 107.665C40.2902 104.235 48.9602 100.745 50.5902 107.285C50.6321 107.455 50.6155 107.635 50.5429 107.794C50.4704 107.954 50.3461 108.084 50.1902 108.165C48.9568 108.805 48.7968 109.692 49.7102 110.825C49.8055 110.944 49.859 111.091 49.8626 111.244C49.8662 111.398 49.8197 111.549 49.7302 111.675C48.5168 113.355 46.8502 113.965 44.7302 113.505C44.6421 113.485 44.5508 113.486 44.463 113.506C44.3752 113.527 44.2932 113.567 44.223 113.624C44.1529 113.681 44.0964 113.752 44.0578 113.834C44.0192 113.915 43.9995 114.005 44.0002 114.095V116.305C44.0002 116.738 44.1935 116.858 44.5802 116.665C47.9802 114.972 51.5602 114.072 55.3202 113.965C56.4602 113.932 57.1435 114.395 57.3702 115.355C57.4435 115.655 57.5502 115.668 57.6902 115.395C59.1002 112.625 62.1302 108.645 65.6802 109.345C65.8376 109.376 65.9853 109.444 66.1107 109.545C66.2362 109.646 66.3355 109.777 66.4002 109.925C68.3302 114.435 71.6602 115.665 74.9102 118.495C75.1435 118.702 75.4202 118.802 75.7402 118.795L84.8002 118.575C85.2068 118.562 85.5802 118.442 85.9202 118.215C89.2135 116.008 92.7135 114.185 96.4202 112.745C96.5062 112.711 96.5841 112.659 96.6485 112.593C96.7129 112.526 96.7624 112.447 96.7936 112.36C96.8248 112.273 96.8371 112.18 96.8296 112.088C96.8221 111.995 96.7951 111.906 96.7502 111.825C96.2435 110.898 95.4368 110.578 94.3302 110.865C94.2641 110.881 94.1948 110.881 94.1289 110.864C94.063 110.847 94.0026 110.814 93.9535 110.768C93.9044 110.722 93.8682 110.664 93.8484 110.601C93.8286 110.537 93.8257 110.47 93.8402 110.405C94.3402 107.912 95.4035 105.672 97.0302 103.685C97.1961 103.481 97.4081 103.32 97.6488 103.215C97.8895 103.11 98.1518 103.064 98.4139 103.08C98.676 103.097 98.9304 103.176 99.1559 103.311C99.3813 103.445 99.5714 103.632 99.7102 103.855L101.15 106.185C101.314 106.444 101.548 106.652 101.826 106.784C102.103 106.915 102.412 106.965 102.716 106.927C103.02 106.889 103.306 106.765 103.54 106.57C103.775 106.375 103.948 106.116 104.04 105.825C104.407 104.672 105.144 103.905 106.25 103.525C106.584 103.412 106.75 103.178 106.75 102.825V101.655C106.75 101.035 107.06 100.765 107.68 100.845L108.24 100.925C108.58 100.972 108.867 100.868 109.1 100.615C109.82 99.8415 109.784 98.7382 108.99 97.3048C108.33 96.2715 108.43 95.6348 109.29 95.3948C109.61 95.3082 109.914 95.3515 110.2 95.5248L110.65 95.7848C110.706 95.8112 110.769 95.8175 110.829 95.8028C110.889 95.7882 110.942 95.7533 110.98 95.7042C111.017 95.6551 111.037 95.5946 111.035 95.5328C111.033 95.471 111.01 95.4118 110.97 95.3648C109.904 94.3448 109.977 93.3682 111.19 92.4348C111.296 92.3506 111.427 92.3046 111.562 92.3041C111.697 92.3036 111.829 92.3486 111.936 92.4321C112.044 92.5156 112.121 92.6328 112.156 92.7654C112.191 92.898 112.182 93.0385 112.13 93.1648L111.73 94.1348C111.685 94.2388 111.667 94.3523 111.677 94.465C111.687 94.5778 111.725 94.6863 111.788 94.7807C111.85 94.8751 111.935 94.9523 112.035 95.0054C112.135 95.0585 112.247 95.0858 112.36 95.0848H113.28C113.453 95.0851 113.619 95.0198 113.744 94.9024C113.868 94.785 113.942 94.6247 113.95 94.4548C113.99 93.7482 114.157 93.4748 114.45 93.6348ZM108.2 106.465C108.82 107.118 109.12 107.858 109.1 108.685C109.094 109.145 109.25 109.212 109.57 108.885L110.16 108.295C110.407 108.055 110.504 107.765 110.45 107.425C110.277 106.258 109.607 105.725 108.44 105.825C108.369 105.832 108.302 105.858 108.245 105.901C108.188 105.945 108.145 106.003 108.12 106.07C108.095 106.137 108.089 106.209 108.103 106.279C108.118 106.349 108.151 106.413 108.2 106.465ZM30.542 109.06C30.7402 108.849 30.79 108.515 30.6805 108.131C30.5709 107.747 30.3109 107.344 29.9577 107.012C29.6045 106.679 29.187 106.443 28.797 106.356C28.4071 106.27 28.0766 106.339 27.8784 106.55C27.6801 106.76 27.6303 107.094 27.7399 107.478C27.8495 107.862 28.1095 108.265 28.4627 108.598C28.8159 108.931 29.2334 109.167 29.6233 109.253C30.0133 109.34 30.3437 109.27 30.542 109.06ZM95.4302 119.825L96.3802 119.515C96.4602 119.488 96.5002 119.432 96.5002 119.345C96.5002 119.238 96.5002 119.128 96.5002 119.015C96.5018 118.926 96.4815 118.838 96.4409 118.759C96.4004 118.68 96.3411 118.612 96.2683 118.562C96.1956 118.512 96.1118 118.482 96.0248 118.474C95.9377 118.465 95.8501 118.48 95.7702 118.515L93.4302 119.525C93.2818 119.595 93.1629 119.715 93.0942 119.864C93.0255 120.013 93.0113 120.182 93.0542 120.34C93.0971 120.499 93.1943 120.637 93.3288 120.731C93.4633 120.825 93.6266 120.869 93.7902 120.855C94.1168 120.808 94.3802 120.662 94.5802 120.415C94.8068 120.135 95.0902 119.938 95.4302 119.825Z" fill="#FFBB01"/>
</svg>
