<svg width="125" height="135" viewBox="0 0 125 135" fill="none" xmlns="http://www.w3.org/2000/svg">
<path d="M44.8101 88.04C39.4401 87.01 40.44 92.3 36.88 94.57C36.8016 94.6205 36.7392 94.6923 36.7002 94.777C36.6612 94.8618 36.6472 94.9558 36.6598 95.0483C36.6724 95.1407 36.7111 95.2276 36.7714 95.2987C36.8316 95.3699 36.911 95.4224 37.0001 95.45C39.1201 96.1 39.5301 93.8 40.5401 92.61C40.7934 92.3034 40.9334 92.3467 40.9601 92.74L41.0701 94.34" stroke="black" stroke-opacity="0.745" stroke-width="2"/>
<path d="M66.1578 91.5579C66.3452 91.6247 66.5567 91.5993 66.7458 91.4875C66.9349 91.3756 67.0862 91.1865 67.1662 90.9616C67.2059 90.8503 67.2269 90.7335 67.228 90.618C67.2291 90.5025 67.2104 90.3905 67.1728 90.2884C67.1352 90.1863 67.0796 90.0961 67.009 90.023C66.9385 89.9498 66.8544 89.8952 66.7616 89.8621C66.5742 89.7954 66.3627 89.8208 66.1736 89.9326C65.9845 90.0444 65.8333 90.2336 65.7532 90.4584C65.7136 90.5698 65.6926 90.6865 65.6915 90.8021C65.6903 90.9176 65.7091 91.0296 65.7467 91.1317C65.7842 91.2338 65.8399 91.324 65.9104 91.3971C65.981 91.4703 66.065 91.5249 66.1578 91.5579Z" stroke="black" stroke-opacity="0.745" stroke-width="2"/>
<path d="M103.389 35.94C105.389 37.15 106.339 43.02 107.389 45.17C107.536 45.47 107.586 45.7834 107.539 46.11C106.969 50.18 108.249 54.4 106.969 58.17C106.829 58.57 106.579 58.6567 106.219 58.43L103.929 56.99C103.859 56.947 103.779 56.9237 103.696 56.9225C103.614 56.9212 103.533 56.9421 103.461 56.983C103.39 57.0239 103.33 57.0832 103.29 57.1548C103.249 57.2264 103.228 57.3076 103.229 57.39C103.243 58.4367 103.743 59.1733 104.729 59.6C104.805 59.633 104.871 59.6864 104.918 59.7543C104.966 59.8222 104.994 59.9019 104.999 59.9847C105.004 60.0675 104.987 60.1501 104.948 60.2233C104.909 60.2966 104.851 60.3578 104.779 60.4L103.639 61.07C103.239 61.31 102.956 61.21 102.789 60.77C101.779 58.05 103.719 53.87 101.429 52.7C101.291 52.6316 101.176 52.5231 101.101 52.3891C101.026 52.2551 100.994 52.1019 101.009 51.95C101.399 47.9 100.509 44.53 100.179 40.36C99.8793 36.47 98.2093 35.56 96.2293 32.49C96.0227 32.1767 96.0193 31.8633 96.2193 31.55C96.7193 30.7567 96.8027 29.91 96.4693 29.01C96.3627 28.7233 96.1793 28.4967 95.9193 28.33C95.006 27.7434 94.366 26.9133 93.9993 25.84C93.9213 25.593 93.7674 25.3763 93.5593 25.22C91.4327 23.58 90.306 21.4167 90.1793 18.73C90.163 18.3573 90.2728 17.9902 90.4907 17.6887C90.7087 17.3872 91.0219 17.1691 91.3793 17.07C92.3793 16.79 93.196 17.0733 93.8293 17.92C93.924 18.0459 93.9915 18.1908 94.0277 18.3457C94.0638 18.5005 94.0678 18.662 94.0393 18.82C93.6327 20.9733 94.4827 22.2767 96.5893 22.73C97.0093 22.8167 97.3093 23.0567 97.4893 23.45L102.869 35.35C102.98 35.5971 103.161 35.8031 103.389 35.94Z" fill="#FF5145"/>
<path d="M93.6192 29.49C94.1859 29.55 94.4092 30.0167 94.2892 30.89C94.2425 31.21 94.1359 31.51 93.9692 31.79C93.5559 32.4767 93.5592 33.1267 93.9792 33.74C97.9059 39.5 99.5259 45.5 98.8392 51.74C98.7992 52.1134 98.8625 52.47 99.0292 52.81L99.9192 54.6C100.086 54.9334 100.053 55.2467 99.8192 55.54L95.8192 60.61C95.5259 60.9834 95.2359 60.9834 94.9492 60.61C93.6225 58.87 93.0225 56.9467 93.1492 54.84C93.2692 52.92 95.2792 51.16 93.2792 49C93.166 48.8773 93.0806 48.7307 93.0288 48.5703C92.9771 48.4098 92.9602 48.2392 92.9792 48.07C93.7392 41.67 90.1692 35.09 86.5592 30.05C85.8992 29.13 85.7192 27.85 85.7492 26.84C85.7625 26.34 85.9992 26.19 86.4592 26.39L93.1292 29.36C93.2826 29.4267 93.4459 29.47 93.6192 29.49Z" fill="#FF5145"/>
<path d="M68.4792 48.23L70.1192 48.94C70.5792 49.14 70.6726 49.45 70.3992 49.87C67.7126 54.0034 64.5292 57.7 60.8492 60.96C55.9992 65.25 46.0392 64.16 41.2692 60.42C41.1976 60.3622 41.1455 60.2839 41.1198 60.1956C41.0941 60.1072 41.0961 60.0131 41.1255 59.926C41.1549 59.8388 41.2103 59.7627 41.2843 59.708C41.3583 59.6533 41.4473 59.6226 41.5392 59.62L45.4392 59.49C45.8726 59.4767 45.9226 59.3334 45.5892 59.06C44.8892 58.5 44.0792 58.14 43.1592 57.98C42.8126 57.92 42.5559 57.73 42.3892 57.41C41.0692 54.7967 39.1926 52.6734 36.7592 51.04C36.6024 50.9359 36.4737 50.7937 36.3848 50.6262C36.2958 50.4587 36.2492 50.2711 36.2492 50.08C36.2192 39.73 39.5792 24.38 54.8492 27.94C57.4092 28.54 58.4292 28.37 60.7492 28.29C63.2592 28.21 66.1792 30.98 67.8192 32.64C71.0392 35.9 72.2192 41.3 73.2792 45.72C73.3154 45.8726 73.3166 46.0314 73.2828 46.1845C73.2489 46.3377 73.1809 46.4811 73.0837 46.6043C72.9866 46.7274 72.8629 46.8269 72.7218 46.8955C72.5808 46.964 72.426 46.9997 72.2692 47H69.1992C68.9392 47 68.7426 47.11 68.6092 47.33L68.3392 47.8C68.3172 47.8368 68.3034 47.8779 68.2986 47.9204C68.2938 47.963 68.2982 48.0061 68.3114 48.0469C68.3247 48.0876 68.3465 48.125 68.3755 48.1566C68.4044 48.1882 68.4398 48.2133 68.4792 48.23ZM61.6892 35.06C62.0092 35.2667 62.3792 35.4 62.7992 35.46C63.2059 35.52 63.3459 35.3567 63.2192 34.97C62.9259 34.07 62.3292 33.49 61.4292 33.23C61.2303 33.173 61.0178 33.1863 60.8276 33.2676C60.6373 33.3489 60.4809 33.4933 60.3846 33.6764C60.2883 33.8596 60.2581 34.0703 60.299 34.2732C60.3399 34.476 60.4495 34.6585 60.6092 34.79C61.0159 35.1167 61.3759 35.2067 61.6892 35.06ZM64.9992 41.94C64.9356 42.0193 64.847 42.0746 64.7478 42.0971C64.6487 42.1196 64.5449 42.1078 64.4533 42.0638C64.3617 42.0197 64.2877 41.9459 64.2434 41.8545C64.1991 41.763 64.187 41.6592 64.2092 41.56L64.8492 38.44C64.9359 38.0067 64.7659 37.7334 64.3392 37.62C60.0192 36.4267 55.6259 36.2034 51.1592 36.95C50.5792 37.05 50.1359 37.3467 49.8292 37.84C47.8759 40.9667 46.3592 44.2567 45.2792 47.71C44.6192 49.81 45.3526 51.1434 47.4792 51.71C57.5492 54.39 59.3592 49.05 65.8092 42.84C66.3892 42.28 66.4526 41.73 65.9992 41.19C65.9514 41.1319 65.8883 41.0885 65.8169 41.0647C65.7456 41.0409 65.669 41.0377 65.5959 41.0554C65.5228 41.0732 65.4562 41.1112 65.4037 41.165C65.3513 41.2189 65.315 41.2865 65.2992 41.36C65.2659 41.5467 65.1659 41.74 64.9992 41.94Z" fill="#FF5145"/>
<path d="M88.8299 49.26L89.2599 48.59C89.2986 48.5303 89.3546 48.4838 89.4205 48.4567C89.4863 48.4297 89.5588 48.4233 89.6283 48.4385C89.6979 48.4537 89.7611 48.4898 89.8096 48.5419C89.8581 48.5939 89.8896 48.6596 89.8999 48.73C90.1465 50.55 89.5065 51.7933 87.9799 52.46C87.6665 52.5933 87.3566 52.5833 87.0499 52.43C81.2599 49.46 88.3799 39.39 80.9599 37.86C80.8052 37.8287 80.6581 37.7655 80.5274 37.6744C80.3968 37.5833 80.2853 37.4661 80.1999 37.33C79.4665 36.17 79.3799 34.9667 79.9399 33.72C80.0787 33.4071 80.3103 33.1443 80.6033 32.9674C80.8964 32.7904 81.2367 32.7078 81.5783 32.7307C81.9199 32.7537 82.2461 32.881 82.5129 33.0955C82.7797 33.31 82.9742 33.6013 83.0699 33.93C83.5032 35.37 84.4866 36.01 86.0199 35.85C86.3332 35.8167 86.6165 35.8933 86.8699 36.08C89.0499 37.66 87.9599 41.08 88.3099 43.29C88.3632 43.6367 88.5366 43.9133 88.8299 44.12C89.8699 44.84 90.0899 45.81 89.4899 47.03C89.3366 47.3433 89.0832 47.51 88.7299 47.53C87.9499 47.5567 87.4665 47.8933 87.2799 48.54C87.213 48.7405 87.2223 48.9585 87.3059 49.1526C87.3896 49.3466 87.5417 49.5031 87.7334 49.5921C87.925 49.6812 88.1427 49.6965 88.345 49.6352C88.5472 49.574 88.7198 49.4404 88.8299 49.26ZM87.7099 46.13C87.9766 45.6367 88.0799 45.09 88.0199 44.49C87.9981 44.2877 87.8984 44.0958 87.742 43.955C87.5855 43.8141 87.3846 43.7353 87.1817 43.7353C86.9789 43.7353 86.7901 43.8141 86.6554 43.955C86.5206 44.0958 86.4505 44.2877 86.4599 44.49C86.4932 45.2167 86.7899 45.79 87.3499 46.21C87.3777 46.2315 87.41 46.2466 87.4443 46.2543C87.4787 46.2619 87.5143 46.2619 87.5486 46.2543C87.583 46.2467 87.6152 46.2316 87.6431 46.2101C87.671 46.1886 87.6938 46.1613 87.7099 46.13Z" fill="#FF5145"/>
<path d="M44.8095 88.04C39.4395 87.01 40.4395 92.3 36.8795 94.57C36.8011 94.6205 36.7387 94.6923 36.6997 94.777C36.6606 94.8617 36.6466 94.9558 36.6592 95.0482C36.6718 95.1407 36.7105 95.2276 36.7708 95.2987C36.8311 95.3699 36.9104 95.4224 36.9995 95.45C39.1195 96.1 39.5295 93.8 40.5395 92.61C40.7928 92.3034 40.9328 92.3467 40.9595 92.74L41.0695 94.34C39.6195 98 36.8895 101.5 36.3595 105.31C36.0128 107.83 35.8195 110.25 35.7795 112.57C35.7696 113.165 35.5446 113.736 35.1462 114.177C34.7478 114.619 34.203 114.901 33.6125 114.972C33.0221 115.042 32.426 114.897 31.9345 114.562C31.4431 114.227 31.0896 113.725 30.9395 113.15C30.1495 110.14 28.7495 106.85 28.3795 103.89C26.6995 90.27 35.2395 80.81 46.4395 74.76C48.8595 73.4534 50.8362 73.7567 52.3695 75.67C52.5762 75.9367 52.8462 76.1067 53.1795 76.18C55.0195 76.58 56.5695 77.04 58.0295 78.26C58.3962 78.56 58.8028 78.54 59.2495 78.2C59.394 78.0916 59.5736 78.0417 59.752 78.0602C59.9303 78.0788 60.0939 78.1646 60.2095 78.3C61.3162 79.58 61.7028 81.0667 61.3695 82.76C61.2762 83.2534 61.4828 83.5 61.9895 83.5H63.0295C63.3567 83.5 63.6689 83.6256 63.8995 83.85C65.1928 85.11 66.3628 86.46 67.4095 87.9C68.9695 90.05 69.0695 92.77 69.9895 95.33C70.1003 95.6298 70.1212 95.9564 70.0495 96.27C69.7562 97.6434 69.9828 98.8767 70.7295 99.97C70.9115 100.237 71.0058 100.555 70.9995 100.88C70.9728 102.287 71.1962 103.64 71.6695 104.94C72.0795 106.08 73.2395 106.49 73.1195 108.12C73.0995 108.44 72.9928 108.707 72.7995 108.92C72.5928 109.14 72.3528 109.297 72.0795 109.39C71.7528 109.497 71.5662 109.38 71.5195 109.04L71.4695 108.73C71.4362 108.483 71.2995 108.393 71.0595 108.46L68.9195 109.07C68.7916 109.104 68.6564 109.093 68.5364 109.04C68.4163 108.988 68.3186 108.896 68.2595 108.78C67.1395 106.64 65.1595 105.19 64.2495 103.26C63.0295 100.667 62.3428 97.9034 62.1895 94.97C62.183 94.8151 62.1226 94.6695 62.0195 94.56L59.8295 92.04C59.5762 91.7534 59.5995 91.4867 59.8995 91.24C60.6062 90.64 60.6262 89.82 59.9595 88.78C58.4095 86.36 57.4695 84.68 54.2395 84.85C50.9662 85.0167 47.8228 86.08 44.8095 88.04ZM66.1576 91.5579C66.345 91.6246 66.5565 91.5993 66.7456 91.4874C66.9347 91.3756 67.0859 91.1865 67.166 90.9616C67.2056 90.8503 67.2266 90.7335 67.2278 90.618C67.2289 90.5025 67.2101 90.3905 67.1726 90.2884C67.135 90.1863 67.0794 90.0961 67.0088 90.023C66.9383 89.9498 66.8542 89.8952 66.7614 89.8621C66.574 89.7954 66.3625 89.8208 66.1734 89.9326C65.9843 90.0444 65.8331 90.2336 65.753 90.4584C65.7133 90.5698 65.6924 90.6865 65.6912 90.802C65.6901 90.9176 65.7089 91.0296 65.7464 91.1317C65.784 91.2338 65.8396 91.324 65.9102 91.3971C65.9807 91.4702 66.0648 91.5249 66.1576 91.5579Z" fill="#FF5145"/>
<path d="M70.9495 111.97L71.9095 111.72C72.3029 111.613 72.4995 111.763 72.4995 112.17V112.68C72.4995 113.06 72.3095 113.267 71.9295 113.3C70.4362 113.44 69.3362 112.84 68.6295 111.5C68.1495 110.6 68.3162 110.46 69.1295 111.08C69.5962 111.433 70.0995 111.723 70.6395 111.95C70.7375 111.989 70.846 111.996 70.9495 111.97Z" fill="#FF5145"/>
<path d="M44.8101 88.04C43.1567 89.3067 41.9101 91.4067 41.0701 94.34L40.9601 92.74C40.9334 92.3467 40.7934 92.3034 40.5401 92.61C39.5301 93.8 39.1201 96.1 37.0001 95.45C36.911 95.4224 36.8316 95.3699 36.7714 95.2987C36.7111 95.2276 36.6724 95.1407 36.6598 95.0483C36.6472 94.9558 36.6612 94.8618 36.7002 94.777C36.7392 94.6923 36.8016 94.6205 36.88 94.57C40.44 92.3 39.4401 87.01 44.8101 88.04Z" fill="#010001" fill-opacity="0.49"/>
<path d="M65.7538 90.4584C65.587 90.9267 65.7682 91.4189 66.1584 91.5579C66.5486 91.6968 67.0001 91.4299 67.1668 90.9616C67.3336 90.4934 67.1524 90.0011 66.7622 89.8622C66.372 89.7232 65.9205 89.9902 65.7538 90.4584Z" fill="#010001" fill-opacity="0.49"/>
</svg>
